<svg viewBox="0 -4 120 37" fill="none" xmlns="http://www.w3.org/2000/svg">
<path d="M31.7842 11.0926V8.81768H34.3708V6.51155C34.3708 4.95336 34.7759 3.86262 35.555 3.17702C36.3653 2.49141 37.6118 2.21094 39.2323 2.21094C39.6686 2.21094 40.1984 2.2421 40.7282 2.27326V4.67288C37.9858 4.4859 37.269 4.92219 37.269 6.63621V8.81768H40.697V11.0926H37.269V25.5527H34.3708V11.0926H31.7842Z" fill="#4D4D4D"/>
<path d="M46.6793 25.8955C43.5006 25.8955 41.0075 24.3373 41.0075 21.1274C41.0075 17.2319 43.8745 16.3905 48.2063 15.8607C50.6683 15.5802 52.2576 15.1751 52.2576 13.4611C52.2576 11.6536 50.9799 10.5317 48.6738 10.5317C46.0249 10.5317 44.7471 11.7782 44.6536 13.7727H41.8489C41.9736 10.9368 44.1239 8.41255 48.6426 8.41255C50.232 8.41255 51.6344 8.69302 52.6939 9.3163C54.0963 10.1577 54.9377 11.6224 54.9377 13.8662V21.6884C54.9377 23.251 54.9377 25.7085 54.9377 25.7085H52.2888L52.32 23.0907H52.2888C51.2292 24.5554 49.5152 25.8955 46.6793 25.8955ZM47.3961 23.7763C50.7306 23.7763 52.2888 21.3144 52.2888 19.3822V16.6398C51.4474 17.1696 49.9827 17.5747 48.6115 17.824C45.869 18.2915 44.0615 18.7901 44.0615 21.0962C44.0615 23.2466 45.7132 23.7763 47.3961 23.7763Z" fill="#4D4D4D"/>
<path d="M64.837 26.0513C62.5932 26.0513 60.6922 25.0541 59.6015 23.1842H59.508V25.5527H56.6409V2.36676H59.5392V8.28789C59.5392 9.56561 59.4768 10.7498 59.4457 11.4666H59.5392C60.6299 9.69027 62.4997 8.41255 64.9305 8.41255C69.1688 8.41255 72.067 11.7159 72.067 17.2319C72.067 22.6233 69.3558 26.0513 64.837 26.0513ZM64.5254 23.6517C67.6106 23.6517 69.1065 20.9404 69.1065 17.2631C69.1065 13.5858 67.6106 10.8433 64.5566 10.8433C61.0039 10.8433 59.3833 13.7104 59.3833 17.2631C59.3833 20.9093 61.0974 23.6517 64.5254 23.6517Z" fill="#4D4D4D"/>
<path d="M76.4534 8.81768V11.8406H76.5469C77.5753 9.90841 79.2893 8.59953 81.5019 8.59953C81.9694 8.59953 82.2498 8.66186 82.5615 8.78651V11.5289H82.468C82.0629 11.4043 81.7824 11.3731 81.2838 11.3731C78.6972 11.3731 76.4845 13.3053 76.4845 16.4528V25.5527H73.5863V8.81768H76.4534Z" fill="#4D4D4D"/>
<path d="M83.774 5.73245V2.36676H86.7969V5.73245H83.774ZM83.8363 25.5527V8.81768H86.7345V25.5527H83.8363Z" fill="#4D4D4D"/>
<path d="M96.4484 26.0201C91.3998 26.0201 88.2523 22.0935 88.2523 17.2008C88.2523 12.3392 91.3998 8.41255 96.4484 8.41255C101.497 8.41255 104.582 12.3392 104.582 17.2008C104.582 22.0935 101.497 26.0201 96.4484 26.0201ZM96.4172 23.6517C99.8453 23.6517 101.622 20.8158 101.622 17.2008C101.622 13.5858 99.8453 10.7187 96.4172 10.7187C92.9892 10.7187 91.2129 13.5858 91.2129 17.2008C91.2129 20.8158 92.9892 23.6517 96.4172 23.6517Z" fill="#4D4D4D"/>
<path d="M108.968 8.81768V11.1861H109.062C110.277 9.50328 111.929 8.41255 114.36 8.41255C117.85 8.41255 120.001 10.3759 120.001 13.8662V25.5527H117.133V14.209C117.133 12.0587 115.731 10.8433 113.456 10.8433C110.869 10.8433 109 12.682 109 15.3621V25.5527H106.101V8.81768H108.968Z" fill="#4D4D4D"/>
<path d="M12.6211 0.0078125C13.3698 0.0836696 13.954 0.715661 13.9541 1.48438C13.9541 1.69024 13.9117 1.88622 13.8359 2.06445L22.4326 6.94336C22.6991 6.689 23.0596 6.53227 23.457 6.53223C24.2769 6.53223 24.9412 7.19682 24.9414 8.0166C24.9414 8.68775 24.4961 9.25377 23.8848 9.4375V19.0664C24.496 19.25 24.9412 19.8163 24.9414 20.4873C24.9414 21.3072 24.277 21.9727 23.457 21.9727L23.3057 21.9648C22.9681 21.9306 22.6649 21.7824 22.4326 21.5605L13.916 26.3936C13.94 26.4995 13.9541 26.6094 13.9541 26.7227C13.9541 27.5426 13.2896 28.207 12.4697 28.207L12.3184 28.1992C11.5695 28.1234 10.9854 27.4915 10.9854 26.7227C10.9854 26.6092 10.9983 26.4988 11.0225 26.3926L2.50781 21.5605C2.24136 21.8148 1.88174 21.9727 1.48438 21.9727L1.33301 21.9648C0.584225 21.889 0 21.2561 0 20.4873C0.000200876 19.8164 0.445513 19.2501 1.05664 19.0664V9.4375C0.445485 9.25369 0 8.68765 0 8.0166C0.000175344 7.19686 0.664603 6.53229 1.48438 6.53223C1.88155 6.53223 2.2414 6.68934 2.50781 6.94336L11.1025 2.06543C11.0267 1.88706 10.9854 1.69044 10.9854 1.48438C10.9855 0.664538 11.6499 0 12.4697 0L12.6211 0.0078125ZM16.5996 17.0869C16.1359 17.547 15.4064 17.6616 14.8135 17.3193C14.7152 17.2626 14.6268 17.1951 14.5469 17.1211L13.915 17.4824C13.9396 17.5896 13.9541 17.7008 13.9541 17.8154C13.9541 18.4862 13.5092 19.0523 12.8984 19.2363V25.3008C13.1247 25.3689 13.3276 25.4904 13.4941 25.6494L22.0098 20.8154C21.986 20.71 21.9727 20.6 21.9727 20.4873C21.9727 20.3742 21.9858 20.2641 22.0098 20.1582L16.5996 17.0869ZM2.93066 20.1572C2.95485 20.2635 2.96872 20.3737 2.96875 20.4873C2.96875 20.6004 2.95462 20.7106 2.93066 20.8164L11.4453 25.6484C11.6122 25.4892 11.8162 25.3687 12.043 25.3008V19.2363C11.4312 19.0529 10.9854 18.4869 10.9854 17.8154C10.9854 17.7005 10.9987 17.5888 11.0234 17.4814L10.3936 17.1211C10.3135 17.1953 10.2255 17.2634 10.127 17.3203C9.53381 17.6628 8.80355 17.5484 8.33984 17.0879L2.93066 20.1572ZM2.50781 9.08887C2.34106 9.2481 2.13869 9.36939 1.91211 9.4375V19.0664C2.13838 19.1344 2.34117 19.2552 2.50781 19.4141L7.93066 16.3359C7.8041 15.7258 8.07348 15.0776 8.64258 14.749C8.73397 14.6963 8.82834 14.6536 8.9248 14.6221V13.8818C8.82843 13.8503 8.73389 13.8086 8.64258 13.7559C8.07287 13.4269 7.80312 12.7777 7.93066 12.167L2.50781 9.08887ZM17.0078 12.168C17.1356 12.7788 16.8677 13.4278 16.2979 13.7568C16.2066 13.8095 16.112 13.8513 16.0156 13.8828V14.6211C16.1121 14.6526 16.2065 14.6953 16.2979 14.748C16.4754 14.8505 16.624 14.9838 16.7402 15.1377C16.7984 15.2147 16.8479 15.2971 16.8896 15.3828C17.032 15.6753 17.0753 16.0102 17.0078 16.335L22.4326 19.4141C22.5993 19.2549 22.8028 19.1345 23.0293 19.0664V9.4375C22.8025 9.36929 22.5994 9.24835 22.4326 9.08887L17.0078 12.168ZM13.4941 15.3242C13.3275 15.4835 13.1249 15.6046 12.8984 15.6729V16.3936C13.1231 16.4612 13.3243 16.5819 13.4902 16.7393L14.1143 16.3828C14.0587 16.1537 14.0569 15.9118 14.1152 15.6768L13.4941 15.3242ZM10.8242 15.6777C10.8826 15.9126 10.8806 16.1539 10.8252 16.3828L11.4482 16.7383C11.6146 16.5805 11.8176 16.4611 12.043 16.3936V15.6729C11.816 15.6048 11.6123 15.4846 11.4453 15.3252L10.8242 15.6777ZM10.3896 13.5625C10.2142 13.7241 10.0046 13.8383 9.78027 13.9004V14.6035C10.0042 14.6654 10.2133 14.7803 10.3887 14.9414L11.0225 14.5811C10.9985 14.4752 10.9854 14.365 10.9854 14.252C10.9854 14.1381 10.9982 14.0274 11.0225 13.9209L10.3896 13.5625ZM13.916 13.9229C13.94 14.0288 13.9541 14.1387 13.9541 14.252C13.9541 14.3648 13.9399 14.4745 13.916 14.5801L14.5498 14.9404C14.7254 14.7788 14.9357 14.6646 15.1602 14.6025V13.9014C14.9354 13.8392 14.7255 13.7246 14.5498 13.5625L13.916 13.9229ZM10.8252 12.1211C10.8803 12.3481 10.8829 12.5873 10.8262 12.8203L11.4482 13.1758C11.6147 13.0178 11.8173 12.8977 12.043 12.8301V12.1104C11.8172 12.0426 11.6147 11.9229 11.4482 11.7646L10.8252 12.1211ZM13.4902 11.7646C13.3243 11.9222 13.1233 12.0426 12.8984 12.1104V12.8301C13.1231 12.8977 13.3243 13.0184 13.4902 13.1758L14.1133 12.8203C14.0568 12.5874 14.0591 12.3479 14.1143 12.1211L13.4902 11.7646ZM13.2754 2.72949C13.1596 2.80458 13.0334 2.86458 12.8984 2.90527V9.26758C13.5093 9.4515 13.954 10.0187 13.9541 10.6895C13.9541 10.8037 13.9395 10.9147 13.915 11.0215L14.5469 11.3828C14.6266 11.309 14.7154 11.2422 14.8135 11.1855C15.4059 10.8436 16.1349 10.9578 16.5986 11.417L22.0098 8.3457C21.9858 8.2399 21.9727 8.12964 21.9727 8.0166C21.9727 7.90313 21.9856 7.79269 22.0098 7.68652L13.2754 2.72949ZM2.93066 7.68652C2.95484 7.79278 2.96873 7.90303 2.96875 8.0166C2.96875 8.12973 2.95463 8.23982 2.93066 8.3457L8.33984 11.416C8.80357 10.956 9.53404 10.8423 10.127 11.1846C10.2253 11.2413 10.3136 11.3088 10.3936 11.3828L11.0234 11.0225C10.9989 10.9154 10.9854 10.8039 10.9854 10.6895C10.9855 10.018 11.4311 9.4509 12.043 9.26758V2.90527C11.9075 2.86463 11.7802 2.80575 11.6641 2.73047L2.93066 7.68652Z" fill="#4D4D4D"/>
</svg>
