<svg xmlns="http://www.w3.org/2000/svg" viewBox="0 -12 160 43" fill="none">
<path d="M34.0 16.5H25.0C25.0 16.2 25.0 15.9 25.0 15.7C25.0 13.2 25.0 10.7 25.0 8.2C25.0 7.9 25.0 7.6 24.9 7.3C24.8 6.5 24.4 6.0 23.7 5.8C23.0 5.6 22.4 5.8 22.0 6.4C21.4 7.0 21.1 7.8 21.2 8.7C21.2 11.0 21.1 13.4 21.2 15.7C21.2 16.3 21.1 16.5 20.4 16.5C18.2 16.5 16.0 16.5 13.8 16.5C13.6 16.5 13.4 16.5 13.2 16.5V15.6C13.2 13.1 13.2 10.5 13.2 8.0C13.2 7.6 13.1 7.2 13.0 6.8C12.5 5.6 11.2 5.4 10.3 6.2C9.5 6.9 9.3 7.8 9.3 8.8C9.3 11.1 9.3 13.4 9.3 15.6V16.5H0.3C0.4 16.2 0.5 15.9 0.6 15.7C0.9 15.1 1.3 14.6 1.3 14.0C1.4 11.1 1.4 8.2 1.3 5.3C1.3 4.7 0.9 4.2 0.7 3.7C0.6 3.4 0.4 3.2 0.2 2.9H9.3V4.6C9.4 4.5 9.5 4.4 9.7 4.3C10.1 3.8 10.7 3.5 11.3 3.2C11.9 2.9 12.6 2.8 13.3 2.8C14.1 2.8 15.0 2.9 15.9 2.8C17.9 2.7 19.5 3.3 20.5 5.1C21.1 4.6 21.7 4.0 22.3 3.6C23.8 2.6 28.9 2.5 30.5 3.4C32.1 4.2 32.9 5.6 32.9 7.4C33.0 9.5 33.0 11.7 32.9 13.8C32.9 14.6 33.1 15.2 33.7 15.7C33.8 15.9 33.8 16.2 34.0 16.5Z" fill="#4D4D4D"/>
<path d="M104.6 2.9H113.7V4.6C113.9 4.4 114.1 4.3 114.2 4.2C114.6 3.8 115.1 3.4 115.7 3.2C116.3 3.0 116.9 2.8 117.5 2.8C118.7 2.8 119.8 2.8 120.9 2.8C123.7 2.9 125.5 4.7 125.5 7.5C125.6 9.6 125.6 11.7 125.5 13.8C125.5 14.5 125.6 15.2 126.3 15.7C126.4 15.9 126.4 16.2 126.6 16.5H117.5V15.7C117.5 13.1 117.5 10.5 117.5 7.9C117.6 7.6 117.5 7.3 117.4 7.0C117.0 5.7 115.6 5.3 114.6 6.3C113.9 7.0 113.7 7.8 113.7 8.8V16.5H104.7C104.8 16.1 105.0 15.9 105.1 15.7C105.3 15.1 105.7 14.6 105.7 14.0C105.8 11.1 105.8 8.2 105.7 5.3C105.7 4.8 105.3 4.2 105.1 3.7C105.0 3.5 104.8 3.2 104.6 2.9Z" fill="#4D4D4D"/>
<path d="M57.4 16.5H48.4C48.3 16.0 48.3 15.6 48.3 15.0C47.1 15.9 45.7 16.4 44.3 16.5C42.4 16.7 40.6 16.5 38.9 15.7C37.4 14.9 36.3 13.8 36.4 12.0C36.4 10.2 37.4 9.0 38.9 8.4C40.2 8.0 41.4 7.7 42.7 7.6C44.6 7.4 46.4 7.6 48.3 7.6C48.3 6.5 47.9 5.8 47.1 5.3C46.1 4.7 45.0 4.6 43.8 4.8C42.0 5.1 40.3 5.4 38.5 5.8V3.0C38.8 3.1 39.1 3.1 39.3 3.3C39.6 3.5 39.9 3.6 40.2 3.7C40.6 3.8 40.9 3.7 41.3 3.6C44.7 2.7 48.4 2.4 51.9 2.9C54.8 3.3 56.3 5.0 56.3 7.9C56.3 9.9 56.3 11.9 56.3 13.9C56.3 14.6 56.5 15.2 57.0 15.7C57.2 15.8 57.2 16.1 57.4 16.5ZM48.3 9.4H46.9C46.7 9.4 46.4 9.4 46.2 9.4C45.9 9.4 45.5 9.5 45.2 9.7C44.9 9.9 44.7 10.2 44.5 10.5C44.3 10.8 44.2 11.1 44.2 11.5C44.2 11.9 44.2 12.2 44.4 12.5C44.5 12.9 44.7 13.2 45.0 13.4C45.3 13.6 45.6 13.8 45.9 13.8C46.3 13.9 46.6 13.9 47.0 13.8C47.3 13.7 47.6 13.6 47.9 13.3C48.1 13.2 48.3 12.9 48.3 12.7C48.3 11.6 48.3 10.5 48.3 9.4Z" fill="#4D4D4D"/>
<path d="M92.8 7.6C92.6 5.7 91.5 4.6 89.6 4.7C87.8 4.8 86.0 5.3 84.2 5.6C83.8 5.6 83.4 5.8 82.9 5.9V3.0C83.3 3.1 83.6 3.1 83.7 3.3C84.4 3.8 85.0 3.8 85.8 3.6C89.2 2.7 92.8 2.4 96.4 2.9C99.2 3.3 100.8 5.0 100.8 7.9C100.8 9.8 100.8 11.8 100.8 13.8C100.8 14.5 100.9 15.2 101.5 15.7C101.7 15.9 101.7 16.2 101.8 16.5H92.8V15.0C91.7 15.8 90.3 16.3 88.9 16.5C87.0 16.7 85.1 16.5 83.3 15.7C81.8 14.9 80.8 13.8 80.8 12.1C80.8 10.3 81.8 9.2 83.2 8.5C84.4 7.9 85.8 7.5 87.2 7.6C89.0 7.5 90.9 7.6 92.8 7.6ZM92.8 9.3C91.8 9.4 90.9 9.4 90.0 9.6C89.1 9.8 88.6 10.8 88.7 11.7C88.7 12.2 88.8 12.6 89.1 12.9C89.3 13.3 89.7 13.6 90.1 13.7C90.5 13.9 90.9 13.9 91.3 13.9C91.8 13.8 92.2 13.6 92.5 13.3C92.7 13.0 92.8 12.8 92.8 12.5C92.8 11.5 92.8 10.5 92.8 9.3L92.8 9.3Z" fill="#4D4D4D"/>
<path d="M70.9 6.8C70.5 7.2 70.1 7.7 69.8 8.2C69.5 8.7 69.4 9.3 69.4 9.9C69.3 11.1 69.4 12.2 69.3 13.3C69.1 14.5 69.8 15.4 70.4 16.5H60.3C60.4 16.1 60.6 15.9 60.7 15.7C60.9 15.1 61.3 14.6 61.3 14.1C61.4 11.2 61.4 8.3 61.3 5.4C61.3 4.8 60.9 4.3 60.6 3.7C60.5 3.5 60.4 3.3 60.2 2.9H69.3V5.5L69.9 4.9C71.4 3.5 73.4 2.7 75.5 2.8C76.3 2.8 77.2 3.0 77.9 3.5C78.6 4.0 79.2 4.7 79.5 5.5C79.9 6.3 79.9 7.2 79.8 8.1C79.6 9.0 79.2 9.7 78.6 10.4C78.0 11.0 77.2 11.4 76.4 11.6C75.5 11.8 74.6 11.8 73.8 11.5C73.0 11.2 72.3 10.6 71.8 9.9C71.3 9.2 71.0 8.4 70.9 7.5C70.9 7.3 70.9 7.1 70.9 6.8Z" fill="#4D4D4D"/>
<path d="M159.9 2.9C157.8 6.8 155.8 10.6 153.7 14.6C154.9 14.6 156.0 14.5 157.0 14.6C158.1 14.8 158.8 13.9 159.8 13.5V17.5C159.5 17.4 159.2 17.3 159.1 17.2C158.6 16.7 158.0 16.5 157.3 16.5C153.0 16.5 148.6 16.5 144.3 16.5H143.3C145.3 12.6 147.3 8.8 149.4 4.8C147.3 5.0 145.2 4.1 143.4 6.0L143.3 5.7V1.8C143.6 1.9 143.9 2.0 144.1 2.1C144.6 2.7 145.2 2.9 146.0 2.9C150.3 2.9 154.7 2.9 159.0 2.9L159.9 2.9Z" fill="#4D4D4D"/>
<path d="M140.0 4.8L138.4 4.8V12.9C138.4 14.4 138.5 14.5 140.0 14.6V16.5C139.8 16.5 139.6 16.5 139.4 16.5C137.6 16.5 135.9 16.5 134.1 16.5C131.9 16.5 130.5 15.1 130.5 12.9C130.5 10.5 130.5 8.1 130.5 5.7V4.8L128.9 4.8V2.9L130.5 2.8V0.5H138.4V2.8L140.0 2.9L140.0 4.8Z" fill="#4D4D4D"/>
</svg>