<svg xmlns="http://www.w3.org/2000/svg" viewBox="0 -20 512 150" fill="#4D4D4D"><path d="M512,49.4L512,40.4L500.8,40.4L500.8,26.4L500.4,26.6L489.9,29.8L489.7,29.8L489.7,40.4L473.2,40.4L473.2,34.5C473.2,31.8 473.8,29.7 475,28.3C476.2,26.9 477.9,26.2 480.1,26.2C481.7,26.2 483.3,26.6 485,27.3L485.4,27.5L485.4,18L485.2,17.9C483.6,17.4 481.6,17.1 479,17.1C475.7,17.1 472.7,17.8 470.2,19.2C467.6,20.6 465.5,22.6 464.1,25.2C462.7,27.7 462,30.7 462,33.9L462,40.4L454.2,40.4L454.2,49.4L462,49.4L462,87.4L473.2,87.4L473.2,49.4L489.7,49.4L489.7,73.6C489.7,83.5 494.4,88.5 503.7,88.5C505.2,88.5 506.8,88.3 508.4,88C510.1,87.6 511.2,87.3 511.9,86.9L512,86.8L512,77.7L511.5,78C510.9,78.4 510.2,78.8 509.3,79C508.4,79.2 507.7,79.4 507.1,79.4C504.9,79.4 503.3,78.8 502.3,77.6C501.3,76.5 500.8,74.4 500.8,71.6L500.8,49.4L512,49.4ZM429.2,79.4C425.2,79.4 422,78 419.7,75.4C417.5,72.7 416.3,68.9 416.3,64.1C416.3,59.1 417.5,55.2 419.7,52.5C422,49.8 425.1,48.5 429.1,48.5C433,48.5 436.1,49.8 438.3,52.3C440.5,54.9 441.7,58.8 441.7,63.8C441.7,68.9 440.6,72.8 438.5,75.5C436.4,78.1 433.3,79.4 429.2,79.4ZM429.7,39.3C422,39.3 415.8,41.6 411.5,46.1C407.1,50.5 404.9,56.7 404.9,64.5C404.9,71.8 407,77.7 411.3,82C415.6,86.3 421.4,88.5 428.6,88.5C436.1,88.5 442.1,86.2 446.5,81.7C450.9,77.1 453.1,71 453.1,63.5C453.1,56 451,50 446.9,45.8C442.8,41.5 437,39.3 429.7,39.3ZM386.8,39.3C381.6,39.3 377.2,40.7 373.9,43.3C370.5,46 368.8,49.5 368.8,53.7C368.8,55.9 369.2,57.9 369.9,59.5C370.7,61.2 371.8,62.7 373.3,63.9C374.8,65.1 377,66.4 380.1,67.7C382.6,68.8 384.5,69.6 385.7,70.3C386.9,71 387.7,71.7 388.2,72.4C388.7,73 388.9,73.9 388.9,75C388.9,78.2 386.5,79.7 381.7,79.7C379.9,79.7 377.8,79.4 375.6,78.6C373.3,77.9 371.2,76.8 369.3,75.4L368.8,75.1L368.8,85.9L369,86C370.6,86.7 372.6,87.3 374.9,87.8C377.3,88.3 379.4,88.5 381.3,88.5C387,88.5 391.6,87.2 394.9,84.5C398.3,81.8 400,78.2 400,73.8C400,70.7 399.1,68 397.3,65.8C395.5,63.6 392.4,61.6 388,59.8C384.5,58.4 382.3,57.3 381.4,56.4C380.5,55.5 380,54.3 380,52.8C380,51.4 380.6,50.3 381.7,49.4C382.9,48.5 384.5,48.1 386.5,48.1C388.3,48.1 390.2,48.4 392.1,49C394,49.5 395.7,50.3 397.1,51.3L397.5,51.6L397.5,41.4L397.4,41.3C396.1,40.7 394.4,40.3 392.3,39.9C390.3,39.5 388.4,39.3 386.8,39.3ZM339.7,79.4C335.7,79.4 332.5,78 330.2,75.4C327.9,72.7 326.8,68.9 326.8,64.1C326.8,59.1 327.9,55.2 330.2,52.5C332.5,49.8 335.6,48.5 339.6,48.5C343.5,48.5 346.6,49.8 348.8,52.3C351,54.9 352.1,58.8 352.1,63.8C352.1,68.9 351.1,72.8 349,75.5C346.9,78.1 343.8,79.4 339.7,79.4ZM340.2,39.3C332.5,39.3 326.3,41.6 321.9,46.1C317.6,50.5 315.3,56.7 315.3,64.5C315.3,71.8 317.5,77.7 321.8,82C326.1,86.3 331.9,88.5 339.1,88.5C346.6,88.5 352.6,86.2 357,81.7C361.4,77.1 363.6,71 363.6,63.5C363.6,56 361.5,50 357.4,45.8C353.3,41.5 347.5,39.3 340.2,39.3ZM298.4,48.6L298.4,40.4L287.3,40.4L287.3,87.4L298.4,87.4L298.4,63.4C298.4,59.3 299.3,55.9 301.1,53.4C302.9,50.9 305.3,49.6 308.3,49.6C309.3,49.6 310.4,49.8 311.6,50.1C312.8,50.4 313.6,50.8 314.2,51.2L314.6,51.5L314.6,40.4L314.4,40.3C313.4,39.8 312,39.6 310.1,39.6C307.3,39.6 304.9,40.5 302.7,42.3C300.9,43.8 299.5,45.9 298.5,48.6L298.4,48.6ZM267.6,39.3C262.5,39.3 258,40.4 254.1,42.5C250.3,44.7 247.3,47.8 245.3,51.6C243.3,55.5 242.2,60.1 242.2,65.1C242.2,69.6 243.2,73.6 245.2,77.2C247.1,80.8 249.9,83.6 253.4,85.6C257,87.5 261,88.5 265.5,88.5C270.8,88.5 275.2,87.5 278.8,85.4L279,85.3L279,75.2L278.5,75.5C276.9,76.7 275.1,77.7 273.1,78.3C271.2,79 269.4,79.4 267.8,79.4C263.5,79.4 260,78 257.5,75.3C255,72.7 253.7,68.9 253.7,64.2C253.7,59.4 255,55.6 257.7,52.7C260.3,49.9 263.8,48.5 268,48.5C271.6,48.5 275.2,49.7 278.5,52.1L279,52.4L279,41.8L278.8,41.7C277.6,41 275.9,40.4 273.7,40C271.6,39.5 269.5,39.3 267.6,39.3ZM234.6,40.4L223.6,40.4L223.6,87.4L234.6,87.4L234.6,40.4ZM229.2,20.4C227.4,20.4 225.8,21.1 224.5,22.3C223.2,23.5 222.5,25.1 222.5,26.9C222.5,28.7 223.2,30.2 224.5,31.4C225.8,32.6 227.4,33.2 229.2,33.2C231.1,33.2 232.7,32.6 234,31.4C235.3,30.2 235.9,28.7 235.9,26.9C235.9,25.1 235.3,23.6 234,22.3C232.7,21.1 231.1,20.4 229.2,20.4ZM201.7,37L201.7,87.4L212.9,87.4L212.9,21.9L197.3,21.9L177.5,70.5L158.3,21.9L142.1,21.9L142.1,87.4L152.6,87.4L152.6,37L153,37L173.3,87.4L181.3,87.4L201.3,37L201.7,37Z"/><rect x="0" y="0" width="51.9" height="51.9"/><rect x="57.3" y="0" width="52" height="51.9"/><rect x="0" y="57.4" width="51.9" height="51.9"/><rect x="57.3" y="57.4" width="52" height="51.9"/></svg>