<svg xmlns="http://www.w3.org/2000/svg" viewBox="-20 -20 1181 412">
<path d="M0 0H65.2861L188.459 234.167L311.708 0H374.374V371.753H315.408V106.755L206.572 311.169H167.262L58.9656 106.755V371.753H0V0Z" fill="#4D4D4D"/>
<path d="M435.114 0H584.339C666.66 0 716.53 44.0893 716.53 117.392C716.53 175.818 684.696 215.128 631.049 228.386L731.946 371.753H660.262L562.526 233.165H495.081V371.753H435.114V0ZM584.879 180.057C631.589 180.057 656.562 157.781 656.562 117.392C656.562 77.0021 631.589 55.2658 584.879 55.2658H495.158V180.057H584.879Z" fill="#4D4D4D"/>
<path d="M766.626 0H831.912L955.085 234.167L1078.33 0H1141V371.753H1082.03V106.755L973.199 311.169H933.888L825.592 106.755V371.753H766.626V0Z" fill="#4D4D4D"/>
</svg>