<?xml version="1.0" encoding="utf-8"?>
<!-- Generator: Adobe Illustrator 12.0.0, SVG Export Plug-In . SVG Version: 6.00 Build 51448)  -->
<!DOCTYPE svg PUBLIC "-//W3C//DTD SVG 1.1//EN" "http://www.w3.org/Graphics/SVG/1.1/DTD/svg11.dtd" [
	<!ENTITY ns_svg "http://www.w3.org/2000/svg">
	<!ENTITY ns_xlink "http://www.w3.org/1999/xlink">
]>
<svg  version="1.1" id="Layer_1" xmlns="&ns_svg;" xmlns:xlink="&ns_xlink;" width="400.896" height="73.3"
	 viewBox="0 0 400.896 73.3" overflow="visible" enable-background="new 0 0 400.896 73.3" xml:space="preserve">
<g>
	<path d="M47.2,0h9.7v71.8h-9.7V38.3H9.7v33.5H0V0h9.7v29.7h37.5V0z"/>
	<path d="M115.398,55.4c-0.3,2.5-2.7,9.9-9.3,14.3c-2.4,1.6-5.8,3.6-14.2,3.6c-14.7,0-23.4-11.1-23.4-26.2
		c0-16.2,7.8-29.1,25.1-29.1c15.1,0,22.5,12,22.5,30.5h-38.2c0,10.9,5.1,17.2,15.2,17.2c8.3,0,13.2-6.4,13.5-10.3H115.398z
		 M106.998,41.5c-0.5-8.1-3.9-15.6-14.6-15.6c-8.1,0-14.5,7.5-14.5,15.6H106.998z"/>
	<path d="M135.598,71.8h-8.8V0h8.8V71.8z"/>
	<path d="M181.897,19.5h9.6l-19.9,52.3h-9.399l-19.101-52.3h10.2l13.6,42.6h0.2L181.897,19.5z"/>
	<path d="M243.197,55.4c-0.3,2.5-2.7,9.9-9.3,14.3c-2.4,1.6-5.801,3.6-14.2,3.6c-14.7,0-23.4-11.1-23.4-26.2
		c0-16.2,7.8-29.1,25.101-29.1c15.1,0,22.5,12,22.5,30.5h-38.2c0,10.9,5.1,17.2,15.2,17.2c8.3,0,13.199-6.4,13.5-10.3H243.197z
		 M234.797,41.5c-0.5-8.1-3.899-15.6-14.6-15.6c-8.101,0-14.5,7.5-14.5,15.6H234.797z"/>
	<path d="M265.196,26.8v34c0,4.1,3.5,4.1,5.3,4.1h3.101v6.9c-3.2,0.3-5.7,0.7-6.601,0.7c-8.699,0-10.6-4.9-10.6-11.2V26.8h-7.1v-7.3
		h7.1V4.9h8.8v14.6h8.4v7.3H265.196z"/>
	<path d="M282.396,10V0h8.8v10H282.396z M291.196,71.8h-8.8V19.5h8.8V71.8z"/>
	<path d="M337.096,37.1c-1.1-7-5-11.2-12.4-11.2c-10.899,0-14.399,10.4-14.399,19.7c0,9,2.199,20.1,14.3,20.1
		c5.9,0,11-4.4,12.5-12.4h8.5c-0.9,8.3-6,20-21.3,20c-14.7,0-23.4-11.1-23.4-26.2c0-16.2,7.8-29.1,25.1-29.1
		c13.7,0,18.9,10,19.601,19.1H337.096z"/>
	<path d="M354.096,35.4c0.399-12.5,8.7-17.4,21.6-17.4c4.2,0,19.4,1.2,19.4,14.6v30.1c0,2.2,1.1,3.1,2.9,3.1
		c0.8,0,1.899-0.2,2.899-0.4v6.4c-1.5,0.4-2.8,1-4.8,1c-7.8,0-9-4-9.3-8c-3.4,3.7-8.7,8.5-18.9,8.5c-9.6,0-16.4-6.1-16.4-15.1
		c0-4.4,1.301-14.6,15.9-16.4l14.5-1.8c2.101-0.2,4.601-1,4.601-6.2c0-5.5-4-8.5-12.301-8.5c-10,0-11.399,6.1-12,10.1H354.096z
		 M386.296,45.1c-1.4,1.1-3.601,1.9-14.5,3.3c-4.301,0.6-11.2,1.9-11.2,8.5c0,5.7,2.899,9.1,9.5,9.1c8.2,0,16.2-5.3,16.2-12.3V45.1z
		"/>
</g>
</svg>
