<?xml version="1.0" encoding="utf-8"?>
<!-- Generator: Adobe Illustrator 24.2.3, SVG Export Plug-In . SVG Version: 6.00 Build 0)  -->
<svg version="1.1"
	 id="Layer_1" xmlns:cc="http://creativecommons.org/ns#" xmlns:dc="http://purl.org/dc/elements/1.1/" xmlns:rdf="http://www.w3.org/1999/02/22-rdf-syntax-ns#" xmlns:svg="http://www.w3.org/2000/svg"
	 xmlns="http://www.w3.org/2000/svg" xmlns:xlink="http://www.w3.org/1999/xlink" x="0px" y="0px" viewBox="0 0 198 234"
	 style="enable-background:new 0 0 198 234;" xml:space="preserve">
<style type="text/css">
	.st0{fill:#FFFFFF;}
	.st1{fill:#E6E6E6;}
	.st2{fill:#FF5F56;}
	.st3{fill:#29292A;}
	.st4{fill:#FF2A2A;}
</style>
<rect id="rect3165" y="0" class="st0" width="198" height="234"/>
<path id="path3167" class="st1" d="M0,0h198v156H0V0z"/>
<rect id="rect3169" y="156" class="st2" width="198" height="78"/>
<g id="text3069">
	<path id="path4081" class="st3" d="M23.9,16.2v9.2c0,1.1,0.1,1.9,0.3,2.5c0.2,0.6,0.4,1,0.6,1.3c0.7,1,1.6,1.6,2.6,1.9
		c1,0.3,1.9,0.5,2.7,0.4c0.6,0,1.3-0.1,2.3-0.3c0.9-0.3,1.8-0.8,2.6-1.7c0.6-0.8,0.9-1.5,1.1-2.3c0.1-0.7,0.2-1.3,0.2-1.7v-9.3h-2
		v9.2c0,0.4,0,0.9-0.2,1.6c-0.1,0.7-0.5,1.3-1.1,1.8c-0.6,0.5-1.5,0.8-2.9,0.9c-0.5,0-1.1-0.1-1.8-0.3c-0.6-0.2-1.2-0.6-1.7-1.2
		c-0.2-0.2-0.3-0.5-0.5-0.9c-0.1-0.4-0.2-1-0.2-1.8v-9.3L23.9,16.2z"/>
	<path id="path4083" class="st3" d="M40,31.3h2v-6c0-1.1,0.3-1.8,0.8-2.4c0.5-0.5,1.2-0.8,1.9-0.8c0.3,0,0.7,0.1,1,0.2
		c0.3,0.1,0.6,0.3,0.9,0.5c0.2,0.2,0.4,0.5,0.5,0.8c0.1,0.3,0.1,0.6,0.1,1v6.6h2v-7.1c0-1.1-0.3-1.8-0.8-2.3c-0.5-0.5-1-0.8-1.6-1
		c-0.6-0.2-1.1-0.2-1.4-0.2c-1.2,0.1-2,0.3-2.5,0.8c-0.5,0.5-0.8,0.8-0.9,1.1l0-1.7h-2l0,1.2L40,31.3z"/>
	<path id="path4085" class="st3" d="M52.5,18.4h2.4v-2.1h-2.4V18.4z M52.7,31.3h2V20.8h-2V31.3z"/>
	<path id="path4087" class="st3" d="M61.3,31.3h2l4.6-10.5h-2.2l-3.2,8.3l-3.3-8.3h-2.2L61.3,31.3z"/>
	<path id="path4089" class="st3" d="M78.8,26.4c0-0.6,0-1.4-0.1-2.3c-0.1-0.9-0.5-1.7-1.2-2.4c-0.6-0.7-1.7-1.1-3.3-1.1
		c-0.3,0-0.7,0-1.3,0.1c-0.5,0.1-1.1,0.3-1.6,0.7c-0.8,0.6-1.4,1.3-1.6,2.1c-0.3,0.8-0.4,1.8-0.4,2.8c0,1.7,0.4,3,1.2,3.9
		c0.8,0.9,2,1.4,3.7,1.4c1,0,1.8-0.2,2.4-0.5c0.6-0.3,1-0.6,1.2-0.9c0.4-0.4,0.6-0.8,0.7-1.2c0.1-0.4,0.2-0.7,0.2-1h-2
		c-0.1,0.7-0.4,1.3-0.8,1.6c-0.4,0.4-1,0.5-1.6,0.5c-1.1,0-1.8-0.4-2.3-1.1c-0.5-0.7-0.7-1.6-0.7-2.7L78.8,26.4z M71.4,25
		c0.1-1.1,0.4-1.9,1-2.4c0.6-0.5,1.2-0.7,1.9-0.7c1.2,0.1,1.9,0.5,2.2,1.2c0.3,0.7,0.4,1.4,0.4,1.9L71.4,25z"/>
	<path id="path4091" class="st3" d="M81.8,31.3h2v-5.6c0-0.9,0.2-1.7,0.6-2.3c0.4-0.6,1.2-0.9,2.3-0.9c0.2,0,0.4,0,0.6,0
		c0.1,0,0.3,0,0.4,0.1v-1.9c-0.2,0-0.4,0-0.6,0c-0.2,0-0.5,0-0.8,0.1c-0.5,0-0.9,0.2-1.4,0.5c-0.5,0.3-0.8,0.8-1.1,1.5l0-2h-2
		c0,0.3,0.1,0.7,0.1,1.1c0,0.4,0,0.7,0,1.1L81.8,31.3z"/>
	<path id="path4093" class="st3" d="M88.8,28.2c0,1.2,0.4,2.1,1.2,2.6s1.7,0.8,2.8,0.8c0.5,0,1.1,0,1.6-0.1c0.5-0.1,1-0.3,1.5-0.6
		c0.4-0.2,0.7-0.6,1-1.1c0.3-0.5,0.4-1,0.4-1.6c0-0.3-0.1-0.7-0.2-1c-0.1-0.3-0.3-0.6-0.6-0.9c-0.3-0.3-0.7-0.5-1.2-0.7
		c-0.5-0.2-1.5-0.4-2.9-0.8c-0.3-0.1-0.6-0.2-0.9-0.4c-0.3-0.2-0.5-0.5-0.5-1c0-0.5,0.2-0.8,0.5-1.1c0.3-0.2,0.6-0.3,1-0.4
		c0.3,0,0.6-0.1,0.7-0.1c0.4,0,0.8,0.1,1.3,0.3c0.5,0.2,0.7,0.7,0.7,1.4h2c0-0.2,0-0.5,0-0.7c0-0.3-0.1-0.5-0.2-0.8
		c-0.3-0.6-0.9-1-1.6-1.3c-0.7-0.2-1.5-0.4-2.1-0.3c-1.2,0-2.2,0.3-2.9,0.9c-0.7,0.6-1.1,1.3-1.1,2.3c0,1.1,0.4,1.8,1.2,2.2
		c0.8,0.4,1.7,0.7,2.8,0.9c0.8,0.2,1.4,0.3,1.7,0.5c0.4,0.2,0.6,0.5,0.6,1c0,0.2,0,0.4-0.1,0.5c-0.1,0.2-0.1,0.3-0.2,0.5
		c-0.2,0.3-0.5,0.4-0.8,0.5c-0.3,0.1-0.7,0.1-1.1,0.1c-0.9,0-1.5-0.2-1.9-0.7c-0.3-0.4-0.5-0.8-0.4-1.2H88.8z"/>
</g>
<g id="text3841">
	<path id="path4071" d="M16.4,65.2h2.3l1.7-4.1h7.4l1.7,4.1h2.4l-6.4-15.9h-2.4L16.4,65.2z M24.1,51.4l2.9,7.8h-6L24.1,51.4z"/>
	<path id="path4073" d="M42.7,65.2c-0.1-0.6-0.1-1.2-0.1-1.7c0-0.6,0-0.9,0-1l0.1-5.3c0-0.3,0-0.5-0.1-0.8c0-0.3-0.1-0.6-0.3-0.9
		c-0.3-0.6-0.9-1-1.6-1.2c-0.7-0.3-1.5-0.4-2.3-0.4c-0.6,0-1.2,0.1-1.9,0.2c-0.7,0.2-1.2,0.5-1.7,0.9c-0.3,0.4-0.5,0.8-0.6,1.1
		c-0.1,0.4-0.1,0.7-0.2,1H36c0-0.3,0.1-0.6,0.3-1.1c0.3-0.5,0.9-0.7,1.9-0.8c0.3,0,0.7,0,1,0.2c0.4,0.1,0.7,0.3,0.9,0.6
		c0.2,0.2,0.3,0.5,0.3,0.9c0,0.4,0.1,0.9,0,1.6c-0.3,0-0.6,0-0.8,0c-0.2,0-0.5,0-0.7,0c-0.5,0-1.1,0-1.8,0.1c-0.7,0.1-1.4,0.3-2,0.6
		c-0.8,0.5-1.3,1-1.6,1.6c-0.3,0.6-0.4,1.1-0.4,1.6c0,0.9,0.3,1.7,1,2.3c0.7,0.6,1.6,0.9,2.9,0.9c0.5,0,1-0.1,1.7-0.3
		c0.6-0.2,1.2-0.8,1.7-1.7c0,0.3,0,0.6,0,0.8c0,0.3,0.1,0.5,0.2,0.8H42.7z M40.5,59.8c0,0.7,0,1.3-0.1,1.8c-0.1,0.4-0.2,0.8-0.4,1.2
		c-0.3,0.4-0.6,0.7-1,0.9c-0.4,0.2-0.9,0.3-1.4,0.3c-0.9,0-1.5-0.3-1.8-0.7c-0.3-0.4-0.5-0.8-0.5-1.2c0-0.7,0.3-1.3,0.8-1.6
		c0.5-0.3,1.1-0.5,1.7-0.6c0.6-0.1,1.1-0.1,1.4-0.1c0.2,0,0.5,0,0.6,0C40.2,59.8,40.4,59.8,40.5,59.8z"/>
</g>
<g id="text3841-4">
	<path id="path4076" d="M54,65.2h10.2v-1.9h-8v-5.3h7.4v-1.9h-7.4v-5H64v-1.9H54V65.2z"/>
	<path id="path4078" d="M77,60c0-0.6,0-1.4-0.1-2.4c-0.1-1-0.5-1.8-1.2-2.6c-0.7-0.8-1.8-1.2-3.5-1.2c-0.3,0-0.8,0-1.4,0.1
		c-0.6,0.1-1.1,0.3-1.7,0.7c-0.9,0.6-1.4,1.4-1.7,2.2c-0.3,0.9-0.5,1.9-0.4,3c0,1.8,0.4,3.2,1.3,4.1c0.8,1,2.1,1.5,3.9,1.5
		c1.1,0,2-0.2,2.6-0.5c0.6-0.3,1-0.6,1.3-0.9c0.4-0.4,0.6-0.9,0.7-1.3c0.1-0.4,0.2-0.8,0.2-1h-2.1c-0.1,0.8-0.4,1.4-0.9,1.7
		c-0.5,0.4-1.1,0.6-1.7,0.6c-1.1,0-1.9-0.4-2.5-1.1C69.2,62.1,69,61.2,69,60L77,60z M69.1,58.6c0.1-1.2,0.4-2.1,1-2.6
		c0.6-0.5,1.3-0.7,2-0.7c1.2,0.1,2,0.5,2.3,1.2c0.3,0.8,0.5,1.4,0.4,2L69.1,58.6z"/>
</g>
<g id="text3841-9">
	<path id="path4066" d="M88.4,65.2h2.2V58h2.8c1.3,0,2.2,0.2,2.6,0.6c0.5,0.4,0.7,1.2,0.8,2.4c0.1,0.6,0.2,1.4,0.3,2.2
		c0.1,0.8,0.3,1.5,0.4,2h2.4c-0.3-0.9-0.5-1.7-0.6-2.5c-0.1-0.8-0.2-1.6-0.3-2.5c-0.1-1-0.3-1.7-0.7-2.1c-0.4-0.4-0.9-0.8-1.7-0.9
		c0.2-0.1,0.5-0.2,0.9-0.3c0.3-0.1,0.7-0.4,1-0.7c0.4-0.4,0.6-0.8,0.8-1.3c0.2-0.5,0.3-1,0.3-1.6c0-0.6-0.1-1.3-0.4-1.8
		c-0.3-0.6-0.7-1-1.3-1.4c-0.6-0.4-1.3-0.6-2-0.7c-0.7-0.1-1.3-0.1-1.7-0.1h-5.7V65.2z M90.6,51.1h3.5c0.3,0,0.7,0,1.2,0.1
		c0.5,0.1,0.9,0.3,1.3,0.7c0.4,0.4,0.6,1,0.6,1.8c0,0.7-0.2,1.1-0.4,1.5c-0.3,0.3-0.5,0.5-0.7,0.6c-0.3,0.2-0.7,0.3-1.2,0.3
		c-0.5,0-0.8,0.1-0.9,0h-3.5L90.6,51.1z"/>
	<path id="path4068" d="M103.3,65.2h2.1v-5.9c0-1,0.2-1.8,0.6-2.4c0.4-0.6,1.2-0.9,2.4-1c0.2,0,0.4,0,0.6,0c0.2,0,0.3,0,0.4,0.1v-2
		c-0.2,0-0.4,0-0.6,0c-0.2,0-0.5,0-0.8,0.1c-0.5,0.1-1,0.2-1.5,0.6c-0.5,0.3-0.9,0.9-1.1,1.6l0-2.1h-2.1c0,0.4,0.1,0.7,0.1,1.1
		c0,0.4,0,0.8,0,1.1L103.3,65.2z"/>
</g>
<g id="text3929">
	<path id="path4048" class="st0" d="M184.1,100c-0.4-3.1-0.6-6.2-0.8-9.1c-0.1-3-0.2-4.8-0.2-5.4l0.5-27.7c0-1.3-0.1-2.7-0.3-4.1
		c-0.2-1.4-0.8-3-1.7-4.8c-1.7-2.9-4.5-5.1-8.3-6.5c-3.8-1.4-7.9-2.1-12.3-2.1c-3.2,0-6.5,0.4-10,1.3c-3.5,0.9-6.4,2.6-8.7,4.9
		c-1.6,2-2.7,3.9-3.1,5.8c-0.5,1.9-0.8,3.6-0.9,5.1h10.9c-0.1-1.4,0.4-3.3,1.8-5.8c1.3-2.4,4.6-3.8,9.9-4c1.6,0,3.4,0.3,5.4,0.8
		c1.9,0.6,3.5,1.6,4.7,3c1,1.2,1.6,2.8,1.8,4.7c0.2,1.9,0.3,4.6,0.3,8.1c-1.6-0.1-3-0.2-4.1-0.3c-1.1-0.1-2.4-0.1-3.7-0.1
		c-2.5-0.1-5.6,0.1-9.4,0.6c-3.8,0.5-7.4,1.5-10.7,3.2c-4.2,2.6-6.9,5.5-8.3,8.6c-1.4,3.2-2,5.9-1.9,8.4c0,4.9,1.8,9,5.2,12.1
		c3.5,3.2,8.5,4.8,15.2,5c2.5,0.2,5.5-0.4,8.8-1.7c3.3-1.3,6.4-4.2,9.1-8.9c0,1.5,0.1,3,0.2,4.4c0.2,1.4,0.4,2.9,0.8,4.3H184.1z
		 M173,71.8c-0.1,3.9-0.3,7-0.6,9.2c-0.3,2.2-1,4.2-2.2,6.1c-1.3,2-3,3.6-5.1,4.6c-2.1,1.1-4.5,1.6-7.3,1.6c-4.7-0.2-8-1.4-9.6-3.6
		c-1.7-2.2-2.5-4.4-2.4-6.4c0.2-3.9,1.7-6.6,4.4-8.3c2.8-1.7,5.8-2.7,9.1-3.1c3.3-0.4,5.7-0.5,7.4-0.4c1.3,0,2.4,0,3.4,0.1
		C171.1,71.6,172.1,71.7,173,71.8L173,71.8z"/>
</g>
<g id="text3933">
	<path id="path4025" class="st4" d="M40.5,138.1h4.8l1.2-3.5h6.9l1.2,3.5h5.4l-6.8-17.3h-5.9L40.5,138.1z M47.6,131.4l2.4-7.3h0.1
		l2.2,7.3H47.6z"/>
	<path id="path4027" class="st4" d="M61.8,126v6.8c0,0.8,0.1,1.6,0.2,2.4c0.2,0.8,0.6,1.5,1.2,2.1c0.6,0.6,1.6,0.9,3,0.9
		c0.5,0,1.2-0.1,1.8-0.3c0.7-0.2,1.3-0.8,2-1.8l0.1,1.9h4.4c0-0.4,0-0.8,0-1c0-0.2,0-0.6,0-1.1v-10H70v7c0,0.4,0,0.9-0.2,1.5
		c-0.2,0.6-0.8,0.9-1.7,0.9c-0.9-0.1-1.4-0.4-1.6-0.9c-0.2-0.6-0.3-1-0.2-1.4v-7L61.8,126z"/>
	<path id="path4029" class="st4" d="M77,134.2c0,1.3,0.3,2.2,1,2.8c0.6,0.6,1.4,1,2.3,1.2c0.9,0.2,1.8,0.3,2.6,0.2
		c0.4,0,1.1,0,2-0.2c0.9-0.1,1.8-0.5,2.6-1.1c0.8-0.6,1.2-1.5,1.3-2.9c0-1.1-0.4-2-1-2.4c-0.6-0.5-1.2-0.8-1.8-0.9l-3.2-0.9
		c-0.4-0.1-0.7-0.2-0.9-0.4c-0.2-0.2-0.3-0.4-0.3-0.8c0-0.4,0.1-0.6,0.4-0.8c0.3-0.2,0.6-0.3,0.9-0.2c0.4,0,0.6,0.1,0.8,0.2
		c0.2,0.1,0.3,0.3,0.4,0.5c0.1,0.2,0.1,0.4,0.1,0.6c0,0.2,0,0.4,0,0.6h4.3c-0.2-1.6-0.8-2.7-1.8-3.3c-1.1-0.6-2.3-0.8-3.6-0.8
		c-0.9,0-1.7,0.1-2.4,0.2c-0.7,0.2-1.3,0.4-1.9,0.8c-0.4,0.3-0.7,0.6-1,1.1c-0.3,0.5-0.4,1-0.4,1.6c0.1,1.2,0.5,2,1.2,2.5
		c0.7,0.5,1.3,0.7,1.7,0.8l2.4,0.7c0.5,0.1,0.9,0.3,1.2,0.5c0.3,0.2,0.5,0.5,0.5,0.9c0,0.3-0.1,0.6-0.3,0.8
		c-0.2,0.3-0.6,0.4-1.1,0.4c-0.4,0-0.7-0.1-0.9-0.2c-0.2-0.1-0.4-0.3-0.4-0.5c-0.1-0.2-0.1-0.4-0.2-0.6c0-0.2,0-0.4,0-0.5L77,134.2z
		"/>
	<path id="path4031" class="st4" d="M90.4,134.2c0,1.3,0.3,2.2,1,2.8c0.6,0.6,1.4,1,2.3,1.2c0.9,0.2,1.8,0.3,2.6,0.2
		c0.4,0,1.1,0,2-0.2c0.9-0.1,1.8-0.5,2.6-1.1c0.8-0.6,1.2-1.5,1.3-2.9c0-1.1-0.4-2-1-2.4c-0.6-0.5-1.2-0.8-1.8-0.9l-3.2-0.9
		c-0.4-0.1-0.7-0.2-0.9-0.4c-0.2-0.2-0.3-0.4-0.3-0.8c0-0.4,0.1-0.6,0.4-0.8c0.3-0.2,0.6-0.3,0.9-0.2c0.4,0,0.6,0.1,0.8,0.2
		c0.2,0.1,0.3,0.3,0.4,0.5c0.1,0.2,0.1,0.4,0.1,0.6c0,0.2,0,0.4,0,0.6h4.3c-0.2-1.6-0.8-2.7-1.8-3.3c-1.1-0.6-2.3-0.8-3.6-0.8
		c-0.9,0-1.7,0.1-2.4,0.2c-0.7,0.2-1.3,0.4-1.9,0.8c-0.4,0.3-0.7,0.6-1,1.1c-0.3,0.5-0.4,1-0.4,1.6c0.1,1.2,0.5,2,1.2,2.5
		c0.7,0.5,1.3,0.7,1.7,0.8l2.4,0.7c0.5,0.1,0.9,0.3,1.2,0.5c0.3,0.2,0.5,0.5,0.5,0.9c0,0.3-0.1,0.6-0.3,0.8
		c-0.2,0.3-0.6,0.4-1.1,0.4c-0.4,0-0.7-0.1-0.9-0.2c-0.2-0.1-0.4-0.3-0.4-0.5c-0.1-0.2-0.1-0.4-0.2-0.6c0-0.2,0-0.4,0-0.5
		L90.4,134.2z"/>
	<path id="path4033" class="st4" d="M110.1,126.1v-3.6l-4.3,1.7v1.9h-2.4v2.9h2.3v5.8c0,1.2,0.2,2,0.8,2.6c0.6,0.6,1.8,0.9,3.5,0.9
		c0.8,0,1.4,0,1.8-0.1c0.5,0,0.8-0.1,1.1-0.1v-2.8c-0.3,0-0.5,0.1-0.6,0.1c-0.2,0-0.3,0-0.5,0c-0.8,0-1.3-0.2-1.5-0.5
		c-0.2-0.4-0.3-0.9-0.2-1.6v-4.2h2.9v-2.9H110.1z"/>
	<path id="path4035" class="st4" d="M127.4,133c0-1,0-1.9-0.1-2.6c-0.1-0.7-0.3-1.2-0.5-1.7c-0.4-0.9-1-1.6-1.9-2.2
		c-0.9-0.6-2.2-0.9-3.8-0.9c-2.2,0-3.8,0.6-4.9,1.8c-1,1.2-1.5,2.8-1.5,4.8c0,2,0.6,3.5,1.7,4.5c1.1,1,2.7,1.5,4.8,1.6
		c1.6,0,3-0.3,4.2-1c1.2-0.7,1.9-1.7,2.1-3.2h-4.2c-0.1,0.6-0.3,1-0.6,1.3c-0.4,0.3-0.8,0.5-1.4,0.5c-0.8,0-1.3-0.2-1.6-0.6
		c-0.3-0.4-0.5-0.8-0.6-1.3c-0.1-0.5-0.1-0.8-0.1-1L127.4,133z M118.8,130.5c0-0.4,0.1-0.8,0.4-1.5c0.3-0.6,0.9-1,1.8-1
		c0.9,0.1,1.5,0.4,1.8,1c0.3,0.6,0.4,1.1,0.4,1.5H118.8z"/>
	<path id="path4037" class="st4" d="M130,138.1h4.5v-17.3H130L130,138.1z"/>
	<path id="path4039" class="st4" d="M138,138.1h4.5v-17.3H138L138,138.1z"/>
	<path id="path4041" class="st4" d="M145.8,126v6.8c0,0.8,0.1,1.6,0.2,2.4c0.2,0.8,0.6,1.5,1.2,2.1s1.6,0.9,3,0.9
		c0.5,0,1.2-0.1,1.8-0.3c0.7-0.2,1.3-0.8,2-1.8l0.1,1.9h4.4c0-0.4,0-0.8,0-1c0-0.2,0-0.6,0-1.1v-10H154v7c0,0.4,0,0.9-0.2,1.5
		c-0.2,0.6-0.8,0.9-1.7,0.9c-0.9-0.1-1.4-0.4-1.6-0.9c-0.2-0.6-0.3-1-0.2-1.4v-7L145.8,126z"/>
	<path id="path4043" class="st4" d="M161.9,138.1h4.5v-6.9c0-0.2,0-0.5,0.1-0.9c0.1-0.4,0.2-0.8,0.5-1.1c0.3-0.4,0.8-0.5,1.4-0.6
		c0.9,0.1,1.4,0.4,1.6,1c0.2,0.6,0.3,1.1,0.2,1.6v6.9h4.5v-7.3c0-0.6,0-1.3-0.2-2c-0.1-0.8-0.5-1.5-1.1-2c-0.6-0.6-1.7-0.9-3.1-0.9
		c-1.2,0-2.1,0.3-2.7,0.7c-0.6,0.4-1,0.9-1.3,1.4l0-1.8h-4.5l0.1,2.6L161.9,138.1z"/>
	<path id="path4045" class="st4" d="M186.6,125.9v1.8c-0.3-0.5-0.7-1-1.3-1.4c-0.6-0.4-1.5-0.6-2.6-0.7c-1.8,0-3.2,0.6-4.1,1.8
		c-0.9,1.1-1.3,2.5-1.3,4.2c0.1,2.2,0.6,3.7,1.7,4.6c1.1,0.9,2.3,1.4,3.6,1.3c0.4,0,1-0.1,1.7-0.3c0.8-0.2,1.5-0.8,2.1-1.7v1.6
		c0,0.7-0.1,1.3-0.4,1.9c-0.3,0.6-1,0.9-2,1c-0.6,0-1.1-0.1-1.5-0.4c-0.3-0.3-0.5-0.6-0.5-1.1h-4.2c0,0.3,0,0.7,0.2,1.2
		s0.4,1,0.9,1.5c0.7,0.6,1.6,1,2.5,1.2c0.9,0.2,1.8,0.3,2.5,0.2c1.2,0,2.2-0.1,3-0.4c0.8-0.3,1.4-0.6,1.9-1c0.8-0.6,1.3-1.3,1.6-2
		c0.3-0.8,0.4-1.5,0.3-2.3v-11.2L186.6,125.9z M186.4,131.6c0,0.3,0,0.7-0.1,1.3s-0.3,1-0.6,1.4c-0.3,0.4-0.8,0.7-1.5,0.7
		c-1-0.1-1.6-0.5-1.9-1.2c-0.3-0.7-0.4-1.5-0.4-2.2c0-1,0.2-1.8,0.6-2.5c0.4-0.6,1-0.9,1.7-0.9c0.7,0,1.2,0.3,1.5,0.7
		c0.3,0.5,0.5,1,0.6,1.5C186.4,131,186.4,131.4,186.4,131.6L186.4,131.6z"/>
</g>
<g id="text3937">
	<path id="path3998" d="M22.9,181.7c-0.1-0.6-0.1-1.1-0.1-1.7c0-0.5,0-0.9,0-1l0.1-5c0-0.2,0-0.5-0.1-0.8c0-0.3-0.1-0.6-0.3-0.9
		c-0.3-0.5-0.8-0.9-1.5-1.2c-0.7-0.3-1.4-0.4-2.2-0.4c-0.6,0-1.2,0.1-1.8,0.2c-0.6,0.2-1.2,0.5-1.6,0.9c-0.3,0.4-0.5,0.7-0.6,1.1
		c-0.1,0.3-0.1,0.7-0.2,0.9h2c0-0.3,0.1-0.6,0.3-1c0.2-0.4,0.8-0.7,1.8-0.7c0.3,0,0.6,0,1,0.1c0.4,0.1,0.6,0.3,0.9,0.5
		c0.2,0.2,0.3,0.5,0.3,0.9c0,0.3,0.1,0.8,0,1.5c-0.3,0-0.5,0-0.8,0c-0.2,0-0.4,0-0.7,0c-0.4,0-1,0-1.7,0.1c-0.7,0.1-1.3,0.3-1.9,0.6
		c-0.8,0.5-1.3,1-1.5,1.6c-0.2,0.6-0.4,1.1-0.3,1.5c0,0.9,0.3,1.6,1,2.2c0.6,0.6,1.6,0.9,2.8,0.9c0.5,0,1-0.1,1.6-0.3
		c0.6-0.2,1.2-0.8,1.7-1.6c0,0.3,0,0.5,0,0.8c0,0.3,0.1,0.5,0.1,0.8L22.9,181.7z M20.9,176.6c0,0.7,0,1.3-0.1,1.7
		c-0.1,0.4-0.2,0.8-0.4,1.1c-0.2,0.4-0.6,0.6-0.9,0.8c-0.4,0.2-0.8,0.3-1.3,0.3c-0.9,0-1.4-0.3-1.8-0.7c-0.3-0.4-0.4-0.8-0.4-1.2
		c0-0.7,0.3-1.2,0.8-1.5c0.5-0.3,1.1-0.5,1.7-0.6c0.6-0.1,1-0.1,1.3-0.1c0.2,0,0.4,0,0.6,0C20.5,176.6,20.7,176.6,20.9,176.6
		L20.9,176.6z"/>
	<path id="path4000" d="M30.2,166.6h-2v13.3l0,1.9h1.9l0-1.6c0.1,0.2,0.2,0.3,0.4,0.5c0.2,0.2,0.4,0.4,0.7,0.6
		c0.5,0.3,0.9,0.5,1.3,0.6c0.4,0.1,0.8,0.1,1,0.1c0.7,0,1.4-0.2,2.1-0.5c0.6-0.3,1.2-0.8,1.6-1.4c0.3-0.3,0.5-0.8,0.7-1.4
		c0.2-0.6,0.3-1.4,0.3-2.4c0-1.1-0.2-2-0.4-2.6c-0.3-0.6-0.5-1.1-0.8-1.3c-0.5-0.5-1-0.9-1.6-1.1c-0.6-0.2-1.2-0.3-1.7-0.3
		c-1.2,0-2,0.3-2.5,0.7c-0.5,0.4-0.8,0.8-0.9,1.1L30.2,166.6z M36.1,176.3c0,0.9-0.2,1.8-0.6,2.7c-0.4,0.9-1.2,1.3-2.4,1.4
		c-1,0-1.7-0.3-2.1-0.9c-0.4-0.6-0.7-1.1-0.8-1.8c-0.1-0.6-0.1-1.1-0.1-1.3c0-0.3,0-0.7,0.1-1.4c0.1-0.7,0.4-1.3,0.8-1.9
		c0.4-0.6,1.1-0.9,2.1-0.9c0.9,0,1.6,0.3,2,0.8c0.4,0.5,0.7,1.1,0.8,1.7C36.1,175.5,36.2,176,36.1,176.3L36.1,176.3z"/>
	<path id="path4002" d="M50.9,174.6c0-0.3-0.1-0.7-0.2-1.1c-0.1-0.4-0.3-0.8-0.7-1.3c-0.5-0.6-1.1-0.9-1.7-1.1
		c-0.6-0.2-1.1-0.2-1.5-0.2c-1.1,0-2.2,0.4-3.2,1.2c-1,0.8-1.5,2.3-1.6,4.5c0,1.1,0.1,1.9,0.4,2.6c0.2,0.6,0.5,1.1,0.9,1.5
		c0.6,0.6,1.2,1,1.9,1.1c0.7,0.2,1.2,0.2,1.6,0.2c1.3,0,2.3-0.4,3.1-1.1c0.7-0.7,1.1-1.6,1.2-2.7h-2c0,0.5-0.2,1.1-0.5,1.5
		c-0.3,0.5-0.9,0.7-1.8,0.8c-1,0-1.7-0.5-2.1-1.3c-0.4-0.8-0.5-1.8-0.5-2.9c0-0.3,0-0.8,0.1-1.4c0.1-0.6,0.3-1.2,0.7-1.7
		c0.4-0.5,1-0.8,1.9-0.9c0.9,0.1,1.5,0.4,1.8,0.9c0.2,0.6,0.4,1,0.3,1.3L50.9,174.6z"/>
	<path id="path4004" d="M62.6,172.6c-0.1-0.3-0.4-0.6-0.9-1.1c-0.5-0.4-1.3-0.7-2.4-0.7c-1.3,0-2.4,0.4-3.3,1.4
		c-0.9,0.9-1.4,2.4-1.5,4.4c0,1.5,0.3,2.7,0.9,3.4c0.5,0.8,1.2,1.3,1.9,1.6c0.7,0.3,1.3,0.4,1.8,0.4c0.4,0,0.8-0.1,1.2-0.2
		c0.5-0.1,0.9-0.3,1.4-0.6c0.3-0.2,0.5-0.4,0.6-0.6c0.1-0.2,0.3-0.4,0.3-0.5l0,1.7h2c0-0.3,0-0.6-0.1-1c0-0.3,0-0.6,0-0.7v-13.5h-2
		L62.6,172.6z M62.7,176.3c0,0.3,0,0.8-0.1,1.5c-0.1,0.7-0.4,1.3-0.8,1.9c-0.4,0.6-1.2,0.9-2.2,0.9c-1.2-0.1-2-0.5-2.4-1.3
		c-0.4-0.8-0.6-1.7-0.5-2.7c0-0.3,0-0.7,0.1-1.4c0.1-0.7,0.3-1.3,0.8-1.9c0.4-0.6,1.1-0.9,2-0.9c0.6,0,1,0.1,1.4,0.3
		c0.4,0.2,0.7,0.5,0.9,0.7c0.2,0.3,0.4,0.6,0.6,1.1C62.6,174.9,62.7,175.5,62.7,176.3L62.7,176.3z"/>
	<path id="path4006" d="M78.8,176.8c0-0.6,0-1.4-0.1-2.3c-0.1-0.9-0.5-1.7-1.2-2.5c-0.7-0.7-1.8-1.1-3.3-1.1c-0.3,0-0.8,0-1.3,0.1
		c-0.5,0.1-1.1,0.3-1.6,0.7c-0.8,0.6-1.4,1.3-1.7,2.1c-0.3,0.8-0.4,1.8-0.4,2.8c0,1.7,0.4,3,1.2,4s2,1.4,3.7,1.4
		c1.1,0,1.9-0.2,2.4-0.5c0.6-0.3,1-0.6,1.2-0.9c0.4-0.4,0.6-0.8,0.7-1.2c0.1-0.4,0.2-0.7,0.2-1h-2c-0.1,0.8-0.4,1.3-0.8,1.7
		c-0.5,0.4-1,0.5-1.7,0.5c-1.1,0-1.9-0.4-2.3-1.1c-0.5-0.7-0.7-1.6-0.7-2.7H78.8z M71.3,175.4c0.1-1.1,0.4-2,1-2.4
		c0.6-0.5,1.2-0.7,1.9-0.7c1.2,0.1,1.9,0.5,2.2,1.2c0.3,0.7,0.4,1.4,0.4,1.9H71.3z"/>
	<path id="path4008" d="M88.8,166.5c-0.2,0-0.5-0.1-0.8-0.1c-0.3,0-0.6,0-0.9,0c-0.7,0-1.2,0.1-1.7,0.3c-0.4,0.2-0.8,0.5-1,0.8
		c-0.2,0.3-0.3,0.6-0.4,0.9c-0.1,0.4-0.1,0.9-0.1,1.6v1.2h-2.1v1.4h2.1v9.1h2v-9.1h2.5v-1.4h-2.5v-1.7c0-0.4,0-0.7,0.2-1
		c0.2-0.3,0.6-0.5,1.4-0.5c0.2,0,0.4,0,0.6,0c0.2,0,0.4,0,0.6,0L88.8,166.5z"/>
	<path id="path4010" d="M92.2,182.5c0,0.5,0.1,1,0.2,1.5c0.2,0.5,0.6,1,1.2,1.3c0.6,0.4,1.6,0.5,3,0.6c0.8,0,1.6-0.1,2.4-0.3
		c0.8-0.2,1.5-0.8,2-1.6c0.2-0.4,0.3-0.9,0.4-1.5c0.1-0.6,0.1-1.6,0.1-2.8l0-6.6l0-1.9h-1.9l0,1.4c-0.2-0.3-0.5-0.6-1-1
		c-0.5-0.4-1.3-0.6-2.3-0.6c-1.3,0-2.4,0.4-3.3,1.3c-0.9,0.9-1.3,2.2-1.4,4c0,0.7,0.1,1.4,0.3,2.1s0.5,1.3,0.9,1.8
		c0.5,0.5,1,0.9,1.6,1.1c0.6,0.2,1.1,0.3,1.6,0.2c0.4,0,0.9,0,1.7-0.2c0.7-0.2,1.3-0.7,1.8-1.5c0.1,1.5-0.1,2.6-0.4,3.5
		c-0.3,0.9-1.1,1.3-2.4,1.4c-0.9,0-1.5-0.2-1.9-0.6c-0.4-0.4-0.5-0.9-0.6-1.5L92.2,182.5z M96.6,180.1c-1.2-0.1-2-0.5-2.4-1.3
		c-0.4-0.8-0.6-1.6-0.5-2.5c0-0.5,0-1,0.2-1.6c0.1-0.6,0.4-1.1,0.8-1.6c0.4-0.4,1-0.7,1.8-0.7c0.5,0,0.9,0.1,1.3,0.2
		c0.4,0.2,0.7,0.4,1,0.7c0.3,0.3,0.5,0.6,0.6,1c0.1,0.4,0.2,0.9,0.2,1.6c0,0.9-0.1,1.6-0.2,2c-0.1,0.4-0.3,0.8-0.5,1
		c-0.2,0.3-0.5,0.6-0.9,0.8C97.6,180,97.2,180.1,96.6,180.1z"/>
	<path id="path4012" d="M107.1,181.7h2v-5.6c0-0.3,0-0.7,0-1.1c0-0.4,0.1-0.8,0.3-1.1c0.1-0.3,0.4-0.6,0.8-0.9
		c0.4-0.3,1-0.5,1.7-0.5c1.1,0.1,1.7,0.4,2,1.1c0.2,0.7,0.3,1.3,0.3,1.8v6.2h2v-6.6c0-0.7,0-1.3-0.1-1.6s-0.2-0.6-0.3-0.8
		c-0.3-0.6-0.8-1.1-1.5-1.3c-0.6-0.2-1.3-0.4-1.8-0.4c-0.7,0-1.4,0.2-2,0.5c-0.6,0.3-1.1,0.7-1.4,1.3v-6.2h-2L107.1,181.7z"/>
	<path id="path4014" d="M121.6,168.8h2.4v-2.2h-2.4V168.8z M121.8,181.7h2v-10.5h-2L121.8,181.7z"/>
	<path id="path4016" d="M129.4,168.8h2.4v-2.2h-2.4V168.8z M127.6,185.8c0.3,0,0.5,0.1,0.7,0.1c0.2,0,0.4,0,0.5,0
		c1.3-0.1,2-0.5,2.3-1.2s0.4-1.4,0.4-2v-11.5h-2v11.3c0,0.8-0.1,1.4-0.4,1.6s-0.8,0.3-1.5,0.3L127.6,185.8z"/>
	<path id="path4018" d="M137.1,181.7h2V176l4.2,5.7h2.6l-4.7-6.1l4.5-4.5H143l-3.9,4.3v-9h-2L137.1,181.7z"/>
	<path id="path4020" d="M149.6,181.7h2v-15.1h-2V181.7z"/>
	<path id="path4022" d="M157.2,181.7h2v-6c0-0.3,0-0.7,0.1-1.1c0.1-0.4,0.2-0.7,0.4-1c0.1-0.2,0.4-0.4,0.7-0.7
		c0.4-0.3,0.9-0.4,1.6-0.5c0.8,0,1.4,0.2,1.7,0.7c0.4,0.4,0.6,1,0.6,1.6v7h2v-5.9c0-0.3,0-0.6,0.1-1.1c0-0.5,0.2-0.9,0.4-1.2
		c0.1-0.2,0.4-0.4,0.7-0.7c0.4-0.3,0.9-0.4,1.5-0.4c0.5,0,0.9,0.1,1.3,0.3c0.3,0.2,0.6,0.4,0.8,0.6c0.1,0.1,0.2,0.3,0.2,0.6
		c0.1,0.2,0.1,0.6,0.1,1v6.8h2v-7.1c-0.1-1.5-0.5-2.5-1.4-3c-0.8-0.5-1.7-0.7-2.5-0.7c-1.1,0-2,0.3-2.5,0.8c-0.5,0.5-0.9,0.9-1,1.2
		c-0.2-0.4-0.5-0.8-1-1.3c-0.5-0.4-1.3-0.7-2.5-0.7c-0.5,0-1,0.1-1.6,0.3c-0.6,0.2-1.2,0.7-1.7,1.5v-1.5h-2l0,1.4L157.2,181.7z"/>
</g>
<g id="text3941">
	<path id="path3971" d="M14.5,202.2h2v-6.1c0-1.1,0.3-1.8,0.8-2.4c0.5-0.5,1.2-0.8,1.9-0.8c0.3,0,0.7,0.1,1,0.2
		c0.3,0.1,0.6,0.3,0.9,0.5c0.2,0.2,0.4,0.5,0.5,0.8c0.1,0.3,0.1,0.6,0.1,1v6.7h2V195c0-1.1-0.3-1.9-0.8-2.4c-0.5-0.5-1-0.9-1.6-1
		c-0.6-0.2-1.1-0.2-1.4-0.2c-1.2,0.1-2,0.3-2.5,0.8c-0.5,0.5-0.8,0.8-0.9,1.1l0-1.7h-2l0,1.2L14.5,202.2z"/>
	<path id="path3973" d="M28.3,197c0,1.6,0.4,2.9,1.3,3.9c0.9,1,2.2,1.6,3.9,1.6c1.8,0,3.1-0.6,4-1.7c0.9-1.1,1.3-2.4,1.3-4
		c0-0.8-0.1-1.6-0.4-2.4c-0.3-0.8-0.8-1.6-1.5-2.2c-0.8-0.6-1.8-0.9-3.2-0.9c-1.4,0-2.4,0.3-3.2,0.9c-0.8,0.6-1.3,1.3-1.7,2.2
		C28.5,195.3,28.3,196.1,28.3,197z M30.4,196.9c0.1-1.6,0.5-2.7,1.2-3.3c0.7-0.6,1.4-0.8,2.1-0.8c0.9,0,1.7,0.3,2.2,1
		c0.5,0.7,0.8,1.7,0.8,3c0,1.6-0.4,2.7-1,3.3c-0.7,0.6-1.4,1-2.2,0.9c-1.1,0-1.9-0.5-2.4-1.3C30.6,199,30.4,198,30.4,196.9
		L30.4,196.9z"/>
	<path id="path3975" d="M43.7,206.2h2V201c0.3,0.5,0.7,0.8,1.3,1.1c0.5,0.3,1.2,0.4,2,0.4c1.3,0,2.4-0.4,3.3-1.4
		c0.9-0.9,1.4-2.3,1.5-4.3c0-1.9-0.5-3.3-1.4-4.2c-0.9-0.9-1.9-1.3-3.1-1.3c-0.5,0-1,0.1-1.7,0.3c-0.7,0.2-1.3,0.8-1.8,1.6l0-1.7h-2
		c0,0.5,0,0.8,0,1.1c0,0.2,0,0.4,0,0.7L43.7,206.2z M45.6,197.2c0-0.4,0-0.9,0.1-1.5c0.1-0.7,0.4-1.3,0.8-1.9
		c0.4-0.6,1.2-0.9,2.2-0.9c1.1,0,1.9,0.5,2.3,1.2c0.4,0.8,0.6,1.7,0.6,2.6c0,0.4,0,0.9-0.1,1.5c-0.1,0.6-0.3,1.2-0.7,1.8
		c-0.4,0.4-0.7,0.7-1.2,0.9c-0.4,0.1-0.8,0.2-1,0.2c-0.9,0-1.6-0.3-2-0.7c-0.4-0.5-0.7-1-0.8-1.6C45.7,198.2,45.6,197.7,45.6,197.2
		L45.6,197.2z"/>
	<path id="path3977" d="M65.8,191.6l-0.1,1.7c-0.2-0.4-0.6-0.8-1.2-1.2c-0.6-0.4-1.4-0.6-2.4-0.7c-1.2,0-2.2,0.4-3.1,1.2
		c-0.9,0.8-1.3,2.2-1.4,4.2c0,1.9,0.5,3.4,1.4,4.3c0.9,0.9,2,1.4,3.4,1.4c0.3,0,0.6,0,1-0.1c0.4-0.1,0.9-0.3,1.3-0.6
		c0.2-0.2,0.4-0.3,0.5-0.5c0.1-0.2,0.2-0.3,0.3-0.4v5.2h2v-12.9c0-0.2,0-0.5,0-0.8c0-0.4,0-0.6,0-0.9L65.8,191.6z M65.8,197.1
		c0,1.1-0.2,2-0.5,2.8c-0.4,0.8-1.2,1.2-2.4,1.2c-0.5,0-0.9-0.1-1.3-0.3c-0.4-0.2-0.7-0.4-0.9-0.8c-0.4-0.6-0.6-1.2-0.7-1.8
		c-0.1-0.6-0.2-1.2-0.1-1.6c0-0.3,0-0.8,0.1-1.3c0.1-0.6,0.3-1.1,0.8-1.6c0.4-0.5,1.1-0.8,2-0.8c1,0,1.8,0.3,2.2,0.9
		c0.5,0.6,0.7,1.2,0.8,1.8C65.8,196.3,65.8,196.8,65.8,197.1z"/>
	<path id="path3979" d="M73.3,202.2h2v-5.6c0-0.9,0.2-1.7,0.6-2.3c0.4-0.6,1.2-0.9,2.3-0.9c0.2,0,0.4,0,0.6,0c0.1,0,0.3,0,0.4,0.1
		v-1.9c-0.2,0-0.4,0-0.6,0c-0.2,0-0.5,0-0.8,0.1c-0.5,0-1,0.2-1.4,0.5c-0.5,0.3-0.9,0.8-1.1,1.5l0-2h-2c0,0.3,0.1,0.7,0.1,1.1
		c0,0.4,0,0.7,0,1.1L73.3,202.2z"/>
	<path id="path3981" d="M82.3,199c0,1.3,0.4,2.1,1.2,2.7c0.8,0.5,1.8,0.8,2.9,0.8c0.6,0,1.1,0,1.6-0.1c0.5-0.1,1-0.3,1.5-0.6
		c0.4-0.2,0.7-0.6,1-1.1c0.3-0.5,0.4-1,0.4-1.6c0-0.3-0.1-0.7-0.2-1c-0.1-0.3-0.3-0.7-0.6-0.9c-0.3-0.3-0.7-0.5-1.2-0.7
		c-0.6-0.2-1.5-0.4-2.9-0.8c-0.3-0.1-0.6-0.2-1-0.4s-0.5-0.5-0.5-1c0-0.5,0.2-0.8,0.5-1.1c0.3-0.2,0.6-0.3,1-0.4
		c0.3,0,0.6-0.1,0.7-0.1c0.4,0,0.8,0.1,1.3,0.3c0.5,0.2,0.7,0.7,0.7,1.5h2c0-0.2,0-0.5,0-0.7c0-0.3-0.1-0.5-0.2-0.8
		c-0.4-0.6-0.9-1-1.6-1.3c-0.7-0.2-1.5-0.4-2.2-0.3c-1.2,0-2.2,0.3-3,0.9c-0.7,0.6-1.1,1.3-1.1,2.3c0,1.1,0.4,1.8,1.2,2.2
		c0.8,0.4,1.7,0.7,2.9,0.9c0.8,0.2,1.4,0.3,1.7,0.5c0.4,0.2,0.6,0.5,0.6,1c0,0.2,0,0.4-0.1,0.5c-0.1,0.2-0.1,0.3-0.2,0.5
		c-0.2,0.3-0.5,0.4-0.8,0.5c-0.3,0.1-0.7,0.1-1.1,0.1c-0.9,0-1.6-0.2-1.9-0.7c-0.3-0.4-0.5-0.8-0.4-1.3L82.3,199z"/>
	<path id="path3983" d="M94,193h1.9v7c0,0.8,0.2,1.4,0.7,1.8c0.4,0.3,1.1,0.5,2,0.5c0.4,0,0.7,0,1,0c0.3,0,0.5-0.1,0.7-0.1v-1.5
		c-0.1,0-0.2,0-0.4,0.1c-0.2,0-0.4,0-0.6,0c-0.7,0-1.1-0.2-1.2-0.5c-0.1-0.3-0.2-0.6-0.2-0.9V193h2.4v-1.4h-2.4v-2.8l-2,0.6v2.2H94
		L94,193z"/>
	<path id="path3985" d="M104.3,191.6v7.1c0,1.1,0.3,1.9,0.9,2.6c0.6,0.7,1.6,1,2.9,1c1.1,0,1.9-0.3,2.4-0.7c0.5-0.4,0.8-0.8,1-1.2
		l0,1.8h2.1c0-0.3,0-0.7,0-1.1c0-0.4,0-0.7,0-0.8v-8.6h-2v6c0,0.3,0,0.6-0.1,0.9c0,0.4-0.2,0.7-0.4,1c-0.3,0.4-0.7,0.7-1.1,0.9
		c-0.4,0.2-0.9,0.3-1.4,0.3c-1,0-1.6-0.3-1.9-0.8c-0.3-0.5-0.4-1-0.4-1.6v-6.8L104.3,191.6z"/>
	<path id="path3987" d="M122,202.2h2l4.6-10.5h-2.2l-3.3,8.4l-3.4-8.4h-2.2L122,202.2z"/>
	<path id="path3989" d="M131.1,191.6l3.5,10.5h2.3l2.8-8.7l2.5,8.7h2.3l3.7-10.5h-2l-2.6,8.3l-2.4-8.3h-2.6l-2.7,8.4l-2.5-8.4H131.1
		z"/>
	<path id="path3991" d="M157.3,196.8l4.1-5.1H159l-2.9,4l-2.8-4h-2.6l3.9,5l-4.2,5.5h2.3l3-4.2l3,4.2h2.6L157.3,196.8z"/>
	<path id="path3993" d="M175.1,191.6h-2.1l-3.4,8.3l-3.3-8.3H164l4.4,10.5l-1.6,4h2l1.5-3.9L175.1,191.6z"/>
	<path id="path3995" d="M178,202.2h7.9v-1.5H180l5.8-7.3v-1.7h-7.6v1.5h5.3l-5.6,7L178,202.2z"/>
</g>
<g id="text3945">
	<path id="path3950" class="st0" d="M39.9,218.8c0,1.3,0.1,2.3,0.3,3.1s0.4,1.4,0.7,1.9c0.3,0.7,0.8,1.2,1.5,1.7
		c0.7,0.5,1.5,0.7,2.4,0.7c0.3,0,0.8-0.1,1.3-0.2c0.5-0.1,1.1-0.4,1.6-0.9c0.7-0.6,1.2-1.4,1.5-2.5c0.3-1.1,0.5-2.4,0.5-4.1
		c0-1-0.1-2-0.3-3.1c-0.2-1.1-0.7-2.1-1.4-3c-0.7-0.8-1.8-1.3-3.2-1.3c-1.5,0.1-2.6,0.6-3.3,1.5c-0.7,1-1.1,2-1.3,3.2
		C40,217.1,39.9,218.1,39.9,218.8z M41.9,218.7c0-0.9,0-1.8,0.2-2.7c0.1-0.9,0.4-1.7,0.8-2.3c0.4-0.6,1-0.9,1.9-1
		c1.1,0,1.8,0.6,2.2,1.6c0.4,1.1,0.6,2.5,0.6,4.3c0,0.9-0.1,1.8-0.2,2.7c-0.1,0.9-0.4,1.6-0.8,2.2c-0.4,0.6-1,0.9-1.8,0.9
		c-1.1,0-1.8-0.6-2.2-1.7C42.1,221.7,41.9,220.4,41.9,218.7L41.9,218.7z"/>
	<path id="path3952" class="st0" d="M58.9,225.9h2v-14.5H59c-0.4,0.4-0.9,0.7-1.6,1.1c-0.6,0.4-1.3,0.8-2,1.2v2.1
		c0.5-0.3,1.1-0.6,1.7-0.9c0.6-0.4,1.2-0.8,1.6-1.2V225.9z"/>
	<path id="path3954" class="st0" d="M68.5,225.9h9.2v-1.7h-6.9l2.5-2.4c0.3-0.3,0.7-0.7,1.3-1.4c0.6-0.7,1.1-1.1,1.3-1.5
		c0.8-1,1.2-1.7,1.4-2.2c0.2-0.5,0.3-1,0.2-1.4c0-1.5-0.5-2.6-1.4-3.3c-0.9-0.7-1.9-1-3.1-1c-0.5,0-1,0.1-1.5,0.2
		c-0.6,0.1-1.1,0.4-1.6,0.8c-0.6,0.6-1,1.1-1.1,1.7c-0.2,0.6-0.2,1.1-0.2,1.5h2.2c0-0.2,0-0.5,0.1-0.9c0.1-0.4,0.3-0.8,0.6-1.1
		c0.3-0.3,0.9-0.5,1.7-0.5c1,0.1,1.7,0.4,1.9,0.9c0.3,0.6,0.4,1,0.4,1.5c0,0.4-0.1,0.8-0.2,1.1c-0.2,0.4-0.4,0.9-0.9,1.4
		c-0.3,0.4-0.7,0.9-1.1,1.3c-0.4,0.4-0.8,0.8-1.2,1.2l-3.8,3.7L68.5,225.9z"/>
	<path id="path3956" class="st0" d="M82.3,222.2c0,0.3,0,0.7,0.1,1.2c0.1,0.5,0.3,0.9,0.7,1.4c0.5,0.5,1.1,0.9,1.8,1.2
		c0.7,0.2,1.4,0.4,2.2,0.4c1.7-0.1,3-0.5,3.8-1.4c0.8-0.9,1.3-1.8,1.3-2.9c0-0.1,0-0.4-0.1-0.9c-0.1-0.5-0.4-1-0.8-1.5
		c-0.4-0.5-1.2-0.9-2.2-1c1.1-0.3,1.9-0.8,2.3-1.5c0.4-0.7,0.6-1.3,0.6-2c0-1-0.4-2-1.2-2.7c-0.8-0.8-2-1.2-3.6-1.2
		c-0.4,0-1,0.1-1.7,0.2c-0.7,0.2-1.4,0.5-2,1.1c-0.6,0.6-0.9,1.4-1,2.6h2.1c0.1-0.9,0.5-1.5,1-1.8c0.5-0.3,1.1-0.5,1.7-0.5
		c0.7,0,1.3,0.2,1.8,0.5c0.5,0.4,0.7,0.9,0.7,1.8c0,0.8-0.2,1.3-0.7,1.7c-0.4,0.4-1,0.6-1.5,0.7c-0.6,0.1-1.1,0.1-1.7,0.1v1.7
		c0.4,0,0.7,0,1,0c0.3,0,0.6,0,1,0.1c0.6,0.1,1,0.4,1.5,0.8c0.4,0.4,0.6,1,0.6,1.8c0,0.7-0.2,1.3-0.7,1.8c-0.5,0.5-1.2,0.8-2.2,0.8
		c-0.9,0-1.6-0.2-2-0.7s-0.7-1-0.7-1.7L82.3,222.2z"/>
	<path id="path3958" class="st0" d="M102.9,225.9h2v-3.1h2.1v-1.7h-2.1v-9.9h-2.3l-6.3,9.1v2.5h6.6L102.9,225.9z M97.9,221.1l5-7.7
		v7.7H97.9z"/>
	<path id="path3960" class="st0" d="M111.1,222.5c0.1,1.2,0.5,2.2,1.3,2.8s1.8,1,3,1c1.6,0,2.9-0.5,3.8-1.4c0.9-0.9,1.4-2.1,1.4-3.6
		c0-1.3-0.4-2.4-1.1-3.3c-0.7-0.9-1.8-1.4-3.3-1.5c-0.8,0-1.5,0.2-2,0.5c-0.5,0.3-0.8,0.6-1.1,0.8l0.3-4.7h6.4v-1.7h-8.2l-0.4,8.7
		h1.9c0-0.2,0.1-0.4,0.2-0.6c0.1-0.2,0.2-0.4,0.5-0.6c0.2-0.2,0.5-0.4,0.8-0.5c0.3-0.1,0.7-0.2,1.1-0.2c0.8,0,1.5,0.3,2,0.8
		c0.5,0.5,0.7,1.3,0.7,2.3c0,0.3,0,0.8-0.2,1.3c-0.1,0.5-0.4,1-0.8,1.4c-0.4,0.4-1,0.6-1.9,0.7c-0.6,0-1.1-0.2-1.6-0.5
		s-0.8-0.9-0.8-1.6L111.1,222.5z"/>
	<path id="path3962" class="st0" d="M134.8,214.8c0-0.3,0-0.6-0.1-1.1c-0.1-0.4-0.3-0.8-0.7-1.3c-0.2-0.3-0.7-0.6-1.2-0.9
		c-0.6-0.3-1.3-0.5-2.3-0.5c-1.5,0-2.7,0.5-3.4,1.4c-0.8,0.9-1.3,2-1.6,3.2c-0.3,1.3-0.4,2.4-0.4,3.5c0,0.9,0.1,1.9,0.3,2.8
		c0.2,0.9,0.5,1.8,1.1,2.5c0.4,0.5,0.9,0.9,1.6,1.2c0.6,0.3,1.3,0.4,2,0.4c1.3,0,2.4-0.4,3.4-1.3c1-0.8,1.5-2.1,1.5-3.8
		c0-1.5-0.5-2.7-1.3-3.5c-0.8-0.8-1.9-1.2-3.1-1.2c-1,0-1.8,0.3-2.3,0.7c-0.5,0.4-0.9,0.8-1.1,1.2c0.1-1.9,0.4-3.4,0.9-4.3
		c0.5-0.9,1.3-1.4,2.3-1.4c0.5,0,1,0.1,1.4,0.4c0.5,0.3,0.7,0.9,0.8,1.7L134.8,214.8z M130.1,224.7c-0.8,0-1.5-0.3-2-0.9
		c-0.5-0.6-0.8-1.4-0.8-2.3c0-0.9,0.2-1.6,0.7-2.2c0.5-0.6,1.2-1,2.2-1c0.8,0,1.4,0.2,1.8,0.6c0.4,0.4,0.6,0.8,0.8,1.3
		c0.1,0.5,0.2,0.9,0.2,1.3c0,1.2-0.3,2-0.9,2.5C131.5,224.4,130.8,224.7,130.1,224.7L130.1,224.7z"/>
	<path id="path3964" class="st0" d="M139,213.1h7.5l-5.6,12.8h2.4l5.3-12.8v-1.8H139V213.1z"/>
	<path id="path3966" class="st0" d="M156.4,218.3c-0.3,0.1-0.7,0.2-1,0.4c-0.4,0.2-0.7,0.4-1.1,0.7c-0.4,0.4-0.6,0.8-0.8,1.2
		c-0.2,0.5-0.3,0.9-0.3,1.4c0,0.6,0.1,1.1,0.3,1.6s0.5,0.9,0.9,1.3c0.5,0.5,1.1,0.8,1.8,1c0.7,0.2,1.3,0.3,2,0.2
		c1.8-0.1,3.1-0.5,3.9-1.4c0.8-0.9,1.2-1.8,1.1-2.9c0-0.9-0.2-1.6-0.6-2.2c-0.4-0.5-0.8-0.9-1.3-1.1c-0.5-0.2-0.9-0.4-1.2-0.4
		c1-0.2,1.8-0.6,2.2-1.3c0.5-0.6,0.7-1.3,0.7-2c0-1.1-0.4-2.1-1.3-2.8c-0.8-0.7-2-1.1-3.6-1.1c-1.3,0-2.2,0.3-2.9,0.7
		c-0.7,0.5-1.2,1-1.4,1.6c-0.3,0.6-0.4,1.1-0.4,1.6c0,0.7,0.2,1.4,0.7,2C154.7,217.6,155.5,218,156.4,218.3L156.4,218.3z M161,215
		c0,0.7-0.3,1.3-0.8,1.7c-0.5,0.4-1.2,0.6-2,0.6c-0.8,0-1.4-0.2-1.9-0.6c-0.5-0.4-0.8-1-0.8-1.7c0-0.7,0.3-1.3,0.8-1.7
		c0.5-0.4,1.2-0.6,2-0.6c0.9,0,1.5,0.2,2,0.7C160.8,213.8,161,214.3,161,215z M155.3,221.9c0-0.8,0.3-1.4,0.8-1.9
		c0.5-0.5,1.2-0.8,2.1-0.8c0.8,0,1.5,0.3,2.1,0.7c0.5,0.5,0.8,1.1,0.8,1.9c0,0.6-0.2,1.2-0.6,1.8c-0.4,0.6-1.2,0.9-2.3,1
		c-1.1,0-1.8-0.3-2.3-0.9C155.5,223.1,155.3,222.5,155.3,221.9L155.3,221.9z"/>
	<path id="path3968" class="st0" d="M167.6,222.5c0.1,1.5,0.6,2.5,1.5,3c0.9,0.5,1.9,0.8,2.9,0.8c1.7-0.1,3-0.6,3.8-1.5
		c0.8-1,1.2-2,1.4-3.2c0.2-1.2,0.2-2.2,0.2-2.9c0-1,0-1.8-0.1-2.4c-0.1-0.6-0.2-1.1-0.3-1.5c-0.5-1.4-1.2-2.4-2.1-2.9
		c-0.9-0.5-1.8-0.7-2.6-0.7c-1.2,0-2.3,0.3-3.2,1.1c-0.9,0.7-1.4,1.9-1.5,3.6c0,1.5,0.5,2.7,1.3,3.4c0.9,0.8,1.9,1.2,3.1,1.2
		c0.6,0,1.2-0.1,1.8-0.4c0.6-0.3,1.1-0.7,1.5-1.4c0.1,0.8,0,1.6,0,2.6s-0.4,1.7-0.8,2.4c-0.5,0.7-1.2,1-2.2,1.1
		c-0.8,0-1.4-0.2-1.8-0.6c-0.4-0.4-0.6-0.9-0.6-1.5L167.6,222.5z M175,215.9c0,0.9-0.2,1.6-0.7,2.1c-0.5,0.5-1.1,0.8-1.9,0.8
		c-0.8,0-1.5-0.3-2-0.8s-0.8-1.2-0.8-2.2c0-0.9,0.2-1.6,0.7-2.2c0.4-0.6,1.1-0.9,1.9-0.9c0.7,0,1.4,0.3,1.9,0.8
		C174.7,214,175,214.8,175,215.9L175,215.9z"/>
</g>
<g>
	<path d="M55.5,78.7h10.3l-0.4,1.9h-8l-1.1,5.1h7.6l-0.4,1.9h-7.6l-1.2,5.4h8.2l-0.4,2H52L55.5,78.7z"/>
	<path d="M68.6,89.7c-0.5,2.4,0,4.1,2.4,4.1c1.4,0,2.7-0.7,3.2-2.4h2.1c-0.2,0.6-0.5,1.5-1.5,2.4c-0.6,0.6-1.9,1.5-4.2,1.5
		c-3.6,0-4.8-2.2-4.1-5.8c0.5-2.2,1.3-4.1,3.4-5.4c1.2-0.8,2.6-0.8,3.3-0.8c5.1,0,4,4.5,3.6,6.4H68.6z M74.9,88.3
		c0.2-1.1,0.5-3.4-2.1-3.4c-1.4,0-3.2,0.8-3.8,3.4H74.9z"/>
</g>
<g>
	<path d="M26.3,79h2.4l3.2,16.4h-2.5l-0.9-4.3H21l-2.7,4.3H16L26.3,79z M22.1,89.3h6.2l-1.3-8L22.1,89.3z"/>
	<path d="M41.1,95.4c0-0.6,0-1.1,0.2-1.7c-1.4,1.9-3,2.1-3.9,2.1c-2.6,0-3.7-1.5-3.3-3.4c0.2-0.9,0.8-2.4,2.7-3.3
		c1.4-0.7,3.2-0.7,4.1-0.7c0.5,0,0.9,0,1.5,0.1c0.3-1.4,0.4-2,0.1-2.5c-0.3-0.6-1.2-0.7-1.8-0.7c-2.2,0-2.6,1.5-2.7,1.9h-2.1
		c0.2-0.6,0.4-1.4,1.2-2.2c1.1-1,2.7-1.2,3.9-1.2c1.7,0,3.3,0.5,3.7,1.7c0.2,0.7,0.1,1.2,0,1.7l-1.2,5.4c0,0.2-0.3,1.7-0.4,2.9H41.1
		z M40.8,89.8c-0.9,0-4.1,0-4.6,2.3c-0.2,0.7,0,2,1.9,2c1.1,0,2-0.4,2.7-1.2c0.6-0.8,0.8-1.4,1.2-3C41.6,89.8,41.3,89.8,40.8,89.8z"
		/>
</g>
<g>
	<path d="M89.6,78.7h5.9c0.8,0,2.6,0,3.6,0.8c1.1,0.8,1.4,2,1.1,3.3c-0.2,1.2-0.9,2.2-1.8,2.9c-0.9,0.7-1.6,0.9-2.2,1.1
		c1.5,0.4,2,1.1,1.8,3.2c-0.2,1.9-0.3,3.3-0.1,5.1h-2.4c-0.1-1.1,0.1-3.1,0.2-4.3c0.2-2.4-0.2-3.1-2.9-3.1h-2.9L88.4,95h-2.2
		L89.6,78.7z M90.3,85.7h3.6c0.2,0,1.5,0,2.2-0.4c0.3-0.2,1.3-0.8,1.6-2.1c0.6-2.7-1.8-2.7-2.7-2.7h-3.6L90.3,85.7z"/>
	<path d="M103.3,86c0.2-0.8,0.3-1.6,0.4-2.3h2.2l-0.4,2.2c0.7-1.6,2.2-2.1,3.2-2.2c0.7-0.1,1.1-0.1,1.5,0l-0.5,2.1
		c-0.1,0-0.2-0.1-0.4-0.1c-0.2,0-0.4,0-0.6,0c-2.5,0-3.4,1.5-3.8,3.4l-1.3,6.1h-2.2L103.3,86z"/>
</g>
</svg>
