<?xml version="1.0" encoding="UTF-8" standalone="no"?>
<!-- Created with Inkscape (http://www.inkscape.org/) -->
<svg
   xmlns:svg="http://www.w3.org/2000/svg"
   xmlns="http://www.w3.org/2000/svg"
   version="1.0"
   width="290"
   height="25"
   id="svg2">
  <defs
     id="defs5" />
  <g
     transform="translate(1.211675,2.265625)"
     id="g1892">
    <path
       d="M 284.5355,0.20002522 C 285.04639,0.20003124 285.54518,0.33111537 286.03188,0.59327802 C 286.51856,0.85545191 286.8977,1.2305542 287.16928,1.718586 C 287.44086,2.2066268 287.57665,2.7155022 287.57665,3.2452136 C 287.57665,3.7695531 287.44287,4.2737228 287.17533,4.7577243 C 286.90778,5.2417287 286.53268,5.6175032 286.05003,5.885049 C 285.56736,6.1525954 285.06252,6.2863684 284.5355,6.2863685 C 284.00847,6.2863684 283.50363,6.1525954 283.02097,5.885049 C 282.53831,5.6175032 282.16254,5.2417287 281.89365,4.7577243 C 281.62476,4.2737228 281.49031,3.7695531 281.49031,3.2452136 C 281.49031,2.7155022 281.62677,2.2066268 281.8997,1.718586 C 282.17262,1.2305542 282.55243,0.85545191 283.03912,0.59327802 C 283.52581,0.33111537 284.0246,0.20003124 284.5355,0.20002522 L 284.5355,0.20002522 z M 284.5355,0.70419548 C 284.10796,0.70420099 283.69185,0.81377388 283.28717,1.0329145 C 282.88249,1.2520654 282.56587,1.5653229 282.33732,1.9726878 C 282.10876,2.3800612 281.99448,2.804236 281.99448,3.2452136 C 281.99448,3.6835081 282.10674,4.1036495 282.33127,4.5056392 C 282.55579,4.9076322 282.86972,5.2208897 283.27306,5.4454125 C 283.67639,5.6699369 284.0972,5.7821987 284.5355,5.7821983 C 284.97379,5.7821987 285.3946,5.6699369 285.79794,5.4454125 C 286.20127,5.2208897 286.51453,4.9076322 286.73771,4.5056392 C 286.96089,4.1036495 287.07248,3.6835081 287.07248,3.2452136 C 287.07248,2.804236 286.95887,2.3800612 286.73166,1.9726878 C 286.50445,1.5653229 286.18783,1.2520654 285.78181,1.0329145 C 285.37578,0.81377388 284.96034,0.70420099 284.5355,0.70419548 L 284.5355,0.70419548 z M 283.20046,4.9271255 L 283.20046,1.6520356 L 284.32576,1.6520356 C 284.71027,1.6520401 284.98858,1.6822903 285.16067,1.7427862 C 285.33276,1.803291 285.46989,1.9088306 285.57207,2.0594051 C 285.67425,2.209988 285.72534,2.3699778 285.72534,2.5393752 C 285.72534,2.7786914 285.63996,2.9870816 285.46922,3.1645463 C 285.29847,3.3420171 285.07193,3.4415066 284.7896,3.4630151 C 284.90522,3.5114181 284.99799,3.5692296 285.0679,3.6364497 C 285.19966,3.7655197 285.36099,3.9819766 285.55191,4.285821 L 285.95121,4.9271255 L 285.30587,4.9271255 L 285.01547,4.4108552 C 284.78691,4.0048323 284.60272,3.7507307 284.4629,3.6485498 C 284.36609,3.573263 284.22493,3.5356183 284.0394,3.5356156 L 283.72883,3.5356156 L 283.72883,4.9271255 L 283.20046,4.9271255 z M 283.72883,3.0838791 L 284.37013,3.0838791 C 284.67666,3.0838822 284.88573,3.0381708 284.99732,2.9467448 C 285.1089,2.8553252 285.1647,2.7343245 285.1647,2.5837422 C 285.1647,2.4869452 285.13781,2.400228 285.08404,2.3235903 C 285.03025,2.2469604 284.95564,2.1898212 284.86018,2.1521724 C 284.76472,2.1145318 284.58793,2.0957095 284.3298,2.0957054 L 283.72883,2.0957054 L 283.72883,3.0838791 z "
       style="font-size:8.26032543px;font-style:normal;font-weight:normal;fill:#9c835a;fill-opacity:1;stroke:none;stroke-width:1px;stroke-linecap:butt;stroke-linejoin:miter;stroke-opacity:1;font-family:Bitstream Vera Sans"
       id="text1877" />
    <path
       d="M 22.382813,18.75 L 22.382813,7.03125 C 22.382788,5.41668 21.61456,4.6093891 20.078125,4.609375 C 18.072897,4.6093891 17.070293,5.8073046 17.070313,8.203125 L 17.070313,14.960938 C 17.070293,16.575523 17.890605,17.382814 19.53125,17.382813 L 19.53125,18.75 L 0,18.75 L 0,17.382813 C 1.6406214,17.382814 2.4609331,16.575523 2.4609375,14.960938 L 2.4609375,6.9140625 C 2.4609331,5.2994926 1.6406214,4.4922018 0,4.4921875 L 0,3.125 L 17.070313,3.125 L 17.070313,4.765625 C 18.346334,3.4114737 20.117165,2.734391 22.382813,2.734375 L 30.039063,2.734375 C 32.591111,2.734391 34.726526,3.5677235 36.445313,5.234375 C 37.903606,3.5677235 39.843708,2.734391 42.265625,2.734375 L 51.132813,2.734375 C 54.986922,2.734391 56.914004,4.4140768 56.914063,7.7734375 L 56.914063,14.960938 C 56.914004,16.575523 57.734315,17.382814 59.375,17.382813 L 59.375,18.75 L 42.304688,18.75 L 42.304688,7.03125 C 42.304643,5.41668 41.536415,4.6093891 40,4.609375 C 37.994752,4.6093891 36.992149,5.8073046 36.992188,8.203125 L 36.992188,14.960938 C 36.992149,16.575523 37.81246,17.382814 39.453125,17.382813 L 39.453125,18.75 L 22.382813,18.75 z M 81.601563,16.40625 C 82.35675,16.406252 83.066385,16.243492 83.730469,15.917969 C 84.394508,15.592451 84.726539,15.208337 84.726563,14.765625 L 84.726563,11.796875 C 84.726539,11.250008 84.387998,10.800789 83.710938,10.449219 C 83.033832,10.097665 82.330708,9.9218838 81.601563,9.921875 C 80.76821,9.9218838 79.941388,10.234384 79.121094,10.859375 C 78.300764,11.484382 77.890608,12.252611 77.890625,13.164063 C 77.890608,14.075526 78.300764,14.843754 79.121094,15.46875 C 79.941388,16.093753 80.76821,16.406252 81.601563,16.40625 L 81.601563,16.40625 z M 84.726563,9.84375 C 84.726539,7.4739696 84.036436,5.9895961 82.65625,5.390625 C 81.302063,4.7916806 79.427065,4.4922018 77.03125,4.4921875 C 74.505195,4.4922018 71.953114,4.9609513 69.375,5.8984375 L 66.445313,6.9140625 L 66.445313,1.328125 L 69.375,1.328125 L 69.375,4.8046875 C 72.213531,3.893244 74.889309,3.3203279 77.402344,3.0859375 C 79.915346,2.8515784 82.52602,2.734391 85.234375,2.734375 L 93.554688,2.734375 C 97.408818,2.734391 99.335899,4.4140768 99.335938,7.7734375 L 99.335938,14.960938 C 99.335899,16.575523 100.15621,17.382814 101.79688,17.382813 L 101.79688,18.75 L 84.726563,18.75 L 84.726563,16.640625 C 84.153623,17.031252 83.46352,17.369793 82.65625,17.65625 C 79.921856,18.645833 77.369776,19.140625 75,19.140625 C 71.640615,19.140625 68.847649,18.58724 66.621094,17.480469 C 64.394528,16.3737 63.281248,14.973962 63.28125,13.28125 C 63.281248,11.588549 64.329424,10.188811 66.425781,9.0820313 C 68.522128,7.9752712 71.380198,7.4218863 75,7.421875 C 77.630192,7.4218863 80.234356,7.9166775 82.8125,8.90625 C 83.567686,9.1666763 84.205706,9.4791759 84.726563,9.84375 L 84.726563,9.84375 z M 126.40625,6.8359375 C 125.33852,7.3567822 124.50519,8.1250106 123.90625,9.140625 C 123.20311,10.234384 122.85154,11.302091 122.85156,12.34375 L 122.85156,14.960938 C 122.85154,16.575523 123.67186,17.382814 125.3125,17.382813 L 125.3125,18.75 L 105.78125,18.75 L 105.78125,17.382813 C 107.42187,17.382814 108.24218,16.575523 108.24219,14.960938 L 108.24219,6.9140625 C 108.24218,5.2994926 107.42187,4.4922018 105.78125,4.4921875 L 105.78125,3.125 L 122.85156,3.125 L 122.85156,7.5 C 123.763,6.4583456 125.06508,5.4622529 126.75781,4.5117188 C 128.4505,3.5612131 129.98695,2.9817866 131.36719,2.7734375 C 131.94008,2.6692869 132.56508,2.6172036 133.24219,2.6171875 C 135.27341,2.6172036 136.95309,3.1575677 138.28125,4.2382813 C 139.60934,5.3190238 140.2734,6.6666788 140.27344,8.28125 C 140.2734,9.9218838 139.60934,11.276049 138.28125,12.34375 C 136.95309,13.411464 135.27341,13.945317 133.24219,13.945313 C 131.21091,13.945317 129.53122,13.411464 128.20313,12.34375 C 126.87498,11.276049 126.21092,9.9218838 126.21094,8.28125 C 126.21092,7.7864693 126.27602,7.3046989 126.40625,6.8359375 L 126.40625,6.8359375 z M 161.60156,16.40625 C 162.35675,16.406252 163.06638,16.243492 163.73047,15.917969 C 164.39451,15.592451 164.72654,15.208337 164.72656,14.765625 L 164.72656,11.796875 C 164.72654,11.250008 164.388,10.800789 163.71094,10.449219 C 163.03383,10.097665 162.33071,9.9218838 161.60156,9.921875 C 160.76821,9.9218838 159.94139,10.234384 159.12109,10.859375 C 158.30076,11.484382 157.89061,12.252611 157.89063,13.164063 C 157.89061,14.075526 158.30076,14.843754 159.12109,15.46875 C 159.94139,16.093753 160.76821,16.406252 161.60156,16.40625 L 161.60156,16.40625 z M 164.72656,9.84375 C 164.72654,7.4739696 164.03644,5.9895961 162.65625,5.390625 C 161.30206,4.7916806 159.42707,4.4922018 157.03125,4.4921875 C 154.5052,4.4922018 151.95311,4.9609513 149.375,5.8984375 L 146.44531,6.9140625 L 146.44531,1.328125 L 149.375,1.328125 L 149.375,4.8046875 C 152.21353,3.893244 154.88931,3.3203279 157.40234,3.0859375 C 159.91535,2.8515784 162.52602,2.734391 165.23438,2.734375 L 173.55469,2.734375 C 177.40882,2.734391 179.3359,4.4140768 179.33594,7.7734375 L 179.33594,14.960938 C 179.3359,16.575523 180.15621,17.382814 181.79688,17.382813 L 181.79688,18.75 L 164.72656,18.75 L 164.72656,16.640625 C 164.15362,17.031252 163.46352,17.369793 162.65625,17.65625 C 159.92186,18.645833 157.36978,19.140625 155,19.140625 C 151.64061,19.140625 148.84765,18.58724 146.62109,17.480469 C 144.39453,16.3737 143.28125,14.973962 143.28125,13.28125 C 143.28125,11.588549 144.32942,10.188811 146.42578,9.0820313 C 148.52213,7.9752712 151.3802,7.4218863 155,7.421875 C 157.63019,7.4218863 160.23436,7.9166775 162.8125,8.90625 C 163.56769,9.1666763 164.20571,9.4791759 164.72656,9.84375 L 164.72656,9.84375 z M 208.94531,18.75 L 208.94531,7.03125 C 208.94529,5.41668 207.91664,4.6093891 205.85938,4.609375 C 203.85415,4.6093891 202.85154,5.8073046 202.85156,8.203125 L 202.85156,14.960938 C 202.85154,16.575523 203.67186,17.382814 205.3125,17.382813 L 205.3125,18.75 L 185.78125,18.75 L 185.78125,17.382813 C 187.42187,17.382814 188.24218,16.575523 188.24219,14.960938 L 188.24219,6.9140625 C 188.24218,5.2994926 187.42187,4.4922018 185.78125,4.4921875 L 185.78125,3.125 L 202.85156,3.125 L 202.85156,4.765625 C 204.12758,3.4114737 206.15883,2.734391 208.94531,2.734375 L 217.77344,2.734375 C 221.62757,2.734391 223.55465,4.4140768 223.55469,7.7734375 L 223.55469,14.960938 C 223.55465,16.575523 224.37496,17.382814 226.01563,17.382813 L 226.01563,18.75 L 208.94531,18.75 z M 245.78125,0 L 245.78125,3.125 L 248.24219,3.125 L 248.24219,4.6875 L 245.78125,4.6875 L 245.78125,14.960938 C 245.78123,16.575523 246.60154,17.382814 248.24219,17.382813 L 248.24219,18.75 L 235.35156,18.75 C 232.5651,18.75 231.17187,17.356772 231.17188,14.570313 L 231.17188,4.6875 L 228.71094,4.6875 L 228.71094,3.125 L 231.17188,3.125 L 231.17188,0 L 245.78125,0 z M 252.1875,1.3671875 L 255.11719,1.3671875 L 255.11719,3.125 L 279.57031,3.125 L 270.70313,17.1875 L 276.99219,17.1875 L 276.99219,15.390625 L 279.92188,15.390625 L 279.92188,20.46875 L 276.99219,20.46875 L 276.99219,18.75 L 252.46094,18.75 L 261.32813,4.6875 L 255.11719,4.6875 L 255.11719,6.640625 L 252.1875,6.640625 L 252.1875,1.3671875 z "
       style="font-size:78.92255402px;font-style:normal;font-weight:normal;fill:#9c835a;fill-opacity:1;stroke:none;stroke-width:1px;stroke-linecap:butt;stroke-linejoin:miter;stroke-opacity:1;font-family:Bitstream Vera Sans"
       id="text1886" />
  </g>
</svg>
