<svg xmlns="http://www.w3.org/2000/svg" viewBox="0 0 300 80" fill="#4D4D4D">
  <!-- Rounded square container -->
  <rect x="4" y="12" width="56" height="56" rx="12" ry="12" fill="#4D4D4D"/>
  <!-- A cutout -->
  <path d="M32 24L48 60H40.5L37.5 53H26.5L23.5 60H16L32 24Z" fill="#F5F5F5"/>
  <path d="M32 33L28 47H36L32 33Z" fill="#4D4D4D"/>
  <!-- Adobe wordmark -->
  <path d="M88 57.5L80.2 30h5.6l5.2 19.8h.1L96.6 30h5.3L88.6 57.5H88z"/>
  <path d="M121.8 57.5h-5V54.8h-.1c-1.5 2.2-3.7 3.3-6.6 3.3-2.5 0-4.5-.7-5.9-2.1-1.4-1.4-2.1-3.3-2.1-5.7V36.5h5.2v12.7c0 1.6.4 2.8 1.2 3.6.8.8 1.9 1.2 3.2 1.2 1.1 0 2-.2 2.8-.7.8-.5 1.4-1.1 1.8-2 .4-.9.6-1.8.6-2.9V36.5h5.2v21h-.3z"/>
  <path d="M142.5 57.5h-5v-3h-.1c-.7 1.1-1.6 1.9-2.9 2.5-1.2.6-2.5.9-3.9.9-3.1 0-5.5-1-7.2-3-1.7-2-2.6-4.7-2.6-8.1 0-3.2.9-5.8 2.7-7.9 1.8-2.1 4.1-3.1 6.9-3.1 2.7 0 4.7 1 6 3h.1V28h5.2v29.5h-.2zM132.2 54c1.7 0 3-.6 4-1.9 1-1.3 1.5-3 1.5-5.2 0-2.3-.5-4.1-1.5-5.3-1-1.3-2.4-1.9-4-1.9-1.7 0-3.1.7-4 2-1 1.3-1.5 3-1.5 5.2 0 2.1.5 3.9 1.5 5.2 1 1.2 2.3 1.9 4 1.9z"/>
  <path d="M161.5 58.1c-3.5 0-6.3-1-8.4-3.1-2.1-2.1-3.1-4.8-3.1-8.1 0-3.5 1-6.3 3.1-8.3 2.1-2 4.9-3 8.3-3s6.1 1 8.2 3c2.1 2 3.1 4.8 3.1 8.3 0 3.4-1 6.1-3.1 8.1-2 2.1-4.7 3.1-8.1 3.1zm0-4.1c1.8 0 3.2-.6 4.2-1.9 1-1.3 1.5-3.1 1.5-5.3 0-2.2-.5-3.9-1.5-5.2-1-1.3-2.4-1.9-4.2-1.9-1.8 0-3.2.6-4.2 1.9-1 1.3-1.5 3-1.5 5.2 0 2.2.5 4 1.5 5.3 1 1.3 2.4 1.9 4.2 1.9z"/>
  <path d="M180.5 57.5h-5.2V28h5.2v11.5h.1c.7-1.1 1.7-2 2.9-2.6 1.2-.6 2.6-.9 4-.9 3 0 5.4 1 7.1 3.1 1.7 2 2.6 4.7 2.6 8.1 0 3.3-.9 5.9-2.7 7.9-1.8 2.1-4.2 3.1-7.1 3.1-1.4 0-2.7-.3-3.9-.8-1.2-.6-2.2-1.4-2.9-2.5h-.1v2.6zm8.2-3.5c1.7 0 3-.7 4-2 1-1.3 1.5-3 1.5-5.2 0-2.1-.5-3.8-1.5-5.1-1-1.3-2.3-2-4-2-1.7 0-3.1.7-4.1 2-1 1.3-1.5 3-1.5 5.1 0 2.2.5 3.9 1.5 5.2 1 1.3 2.4 2 4.1 2z"/>
  <path d="M214.2 58.1c-3.4 0-6.1-1-8.1-3-2-2-3-4.7-3-8.1 0-3.6 1-6.4 3.1-8.4 2.1-2 4.9-3 8.4-3 3.1 0 5.6.9 7.4 2.6 1.8 1.7 2.8 4.1 2.8 7.2v2.5h-16.4c.1 2 .7 3.5 1.9 4.6 1.1 1.1 2.7 1.6 4.5 1.6 2.7 0 5-.9 6.8-2.6v4.3c-.9.7-2 1.2-3.3 1.6-1.2.5-2.7.7-4.1.7zm-5.8-13.4h11.2c0-1.6-.5-2.9-1.4-3.9-.9-1-2.2-1.5-3.8-1.5-1.6 0-2.9.5-3.9 1.5-1.1 1-1.8 2.3-2.1 3.9z"/>
</svg>
