<svg viewBox="0 -12 216 48" fill="none" xmlns="http://www.w3.org/2000/svg"><g clip-path="url(#clip0)"><path d="M28.3 24L32.2 19.9L16.4 5.0C13.4 2.1 11.0 0 7.3 0C2.1 0 0 3.9 0 8.8V23.0H6.0V8.6C6.0 6.8 6.4 5.5 7.8 5.5C8.8 5.5 9.4 6.1 10.6 7.2L28.3 24H28.3ZM34.5 23.0H40.5V0.7H34.5V23.0Z" fill="#4D4D4D"/></g><g clip-path="url(#clip1)"><g clip-path="url(#clip2)"><path d="M87.1 15.6H93.2V22.9H96.0V15.6H102.1V13.2H87.1V15.6Z" fill="#4D4D4D"/><mask id="m0" style="mask-type:luminance" maskUnits="userSpaceOnUse" x="52" y="0" width="164" height="24"><path d="M215.7 0.7H52.3V23.2H215.7V0.7Z" fill="white"/></mask><g mask="url(#m0)"><path d="M115.2 18.4C115.7 18.2 116.0 17.9 116.3 17.5C116.6 17.1 116.7 16.6 116.7 16.0C116.7 15.1 116.4 14.4 115.8 13.9C115.3 13.4 114.5 13.2 113.5 13.2H103.2V22.9H105.9V21.2L116.7 23.2V20.9L105.0 18.7H113.5C114.2 18.7 114.7 18.6 115.2 18.4ZM105.9 16.8V15.4H113.0C113.2 15.4 113.4 15.5 113.6 15.6C113.7 15.7 113.8 15.9 113.8 16.1C113.8 16.3 113.7 16.5 113.6 16.6C113.4 16.7 113.2 16.8 113.0 16.8H105.9Z" fill="#4D4D4D"/><path d="M52.3 22.9H55.1V13.2H52.3V22.9Z" fill="#4D4D4D"/></g><path d="M86.2 18.1C85.6 17.7 84.6 17.4 83.2 17.2L77.0 16.3C76.8 16.3 76.6 16.3 76.4 16.2C76.3 16.2 76.2 16.2 76.1 16.1C76.1 16.1 76.1 16.0 76.1 15.9C76.1 15.8 76.2 15.7 76.4 15.5C76.6 15.4 76.9 15.3 77.4 15.3C77.9 15.2 78.5 15.2 79.2 15.2C80.6 15.2 81.9 15.3 83.0 15.5C84.0 15.8 85.1 16.2 86.2 16.7V14.2C85.5 13.8 84.6 13.5 83.6 13.3C82.5 13.0 81.3 12.9 79.9 12.9C78.5 12.9 77.4 13.0 76.4 13.3C75.4 13.5 74.6 13.9 74.0 14.4C73.5 14.9 73.2 15.5 73.2 16.2C73.2 16.8 73.5 17.4 74.1 17.8C74.7 18.2 75.7 18.5 77.0 18.7L82.7 19.4C83.1 19.5 83.4 19.5 83.6 19.6C83.8 19.6 83.9 19.7 84.0 19.7C84.1 19.8 84.2 19.9 84.2 20.0C84.2 20.2 84.0 20.3 83.8 20.5C83.5 20.6 83.1 20.7 82.6 20.8C82.0 20.9 81.4 20.9 80.6 20.9C79.4 20.9 78.2 20.8 77.0 20.5C75.9 20.2 74.8 19.8 73.7 19.1V21.8C74.5 22.2 75.5 22.6 76.5 22.8C77.6 23.1 78.8 23.2 80.1 23.2C81.7 23.2 83.0 23.1 84.0 22.7C85.0 22.4 85.8 22.0 86.3 21.5C86.8 21.0 87.0 20.4 87.0 19.7C87.0 19.1 86.8 18.6 86.2 18.1Z" fill="#4D4D4D"/><path d="M69.3 22.4L61.9 13.2H56.8V22.9H59.6V15.3H60.0L66.1 22.9H72.1V13.2H69.3V22.4Z" fill="#4D4D4D"/><path d="M186.3 15.6H192.4V22.9H195.3V15.6H201.3V13.2H186.3V15.6Z" fill="#4D4D4D"/><path d="M182.5 22.4L175.1 13.2H170.0V22.9H172.8V15.3H173.2L179.3 22.9H185.3V13.2H182.5V22.4Z" fill="#4D4D4D"/><path d="M155.0 22.9H168.6V20.6H157.8V19.0H167.5V16.8H157.8V15.6H168.6V13.2H155.0V22.9Z" fill="#4D4D4D"/><path d="M214.8 18.1C214.2 17.7 213.2 17.4 211.8 17.2L205.6 16.3C205.4 16.3 205.2 16.3 205.1 16.2C204.9 16.2 204.8 16.2 204.8 16.1C204.7 16.1 204.7 16.0 204.7 15.9C204.7 15.8 204.8 15.7 205.0 15.5C205.2 15.4 205.5 15.3 206.0 15.3C206.5 15.2 207.1 15.2 207.8 15.2C209.3 15.2 210.5 15.3 211.6 15.5C212.7 15.8 213.7 16.2 214.8 16.7V14.2C214.1 13.8 213.2 13.5 212.2 13.3C211.1 13.0 209.9 12.9 208.5 12.9C207.1 12.9 206.0 13.0 205.0 13.3C204.0 13.5 203.2 13.9 202.7 14.4C202.1 14.9 201.8 15.5 201.8 16.2C201.8 16.8 202.1 17.4 202.7 17.8C203.4 18.2 204.3 18.5 205.7 18.7L211.3 19.4C211.7 19.5 212.0 19.5 212.2 19.6C212.4 19.6 212.5 19.7 212.6 19.7C212.7 19.8 212.8 19.9 212.8 20.0C212.8 20.2 212.7 20.3 212.4 20.5C212.1 20.6 211.7 20.7 211.2 20.8C210.7 20.9 210.0 20.9 209.3 20.9C208.0 20.9 206.8 20.8 205.7 20.5C204.5 20.2 203.4 19.8 202.3 19.1V21.8C203.2 22.2 204.1 22.6 205.2 22.8C206.2 23.1 207.4 23.2 208.8 23.2C210.3 23.2 211.6 23.1 212.6 22.7C213.6 22.4 214.4 22.0 214.9 21.5C215.4 21.0 215.7 20.4 215.7 19.7C215.7 19.1 215.4 18.6 214.8 18.1Z" fill="#4D4D4D"/><path d="M143.8 22.4L139.6 13.2H134.3V22.9H137.1V15.3H137.5L141.0 22.9H146.6L150.1 15.3H150.5V22.9H153.3V13.2H148.0L143.8 22.4Z" fill="#4D4D4D"/><path d="M129.8 18.0C129.8 18.5 129.6 19.0 129.3 19.4C129.0 19.9 128.5 20.2 127.8 20.4C127.1 20.7 126.3 20.8 125.3 20.8C124.4 20.8 123.6 20.7 122.9 20.4C122.2 20.2 121.7 19.9 121.4 19.4C121.0 19.0 120.9 18.5 120.9 18.0V13.2H118.0V18.1C118.0 19.2 118.3 20.1 118.9 20.9C119.5 21.6 120.4 22.2 121.5 22.6C122.6 23.0 123.9 23.2 125.3 23.2C126.8 23.2 128.1 23.0 129.2 22.6C130.3 22.2 131.1 21.6 131.7 20.9C132.3 20.1 132.6 19.2 132.6 18.1V13.2H129.8V18.0Z" fill="#4D4D4D"/><path d="M88.6 10.4H91.5V3.1H97.6V0.7H82.5V3.1H88.6V10.4Z" fill="#4D4D4D"/><path d="M73.3 8.1H80.6L82.1 10.4H85.4L78.8 0.7H75.0L68.4 10.4H71.8L73.3 8.1ZM76.7 2.8H77.1L79.2 6.0H74.6L76.7 2.8Z" fill="#4D4D4D"/><mask id="m1" style="mask-type:luminance" maskUnits="userSpaceOnUse" x="52" y="0" width="164" height="24"><path d="M215.7 0.7H52.3V23.2H215.7V0.7Z" fill="white"/></mask><g mask="url(#m1)"><path d="M101.4 0.7H98.6V10.4H101.4V0.7Z" fill="#4D4D4D"/><path d="M67.6 10.4V0.7H64.8V9.9L57.4 0.7H52.3V10.4H55.1V2.8H55.5L61.6 10.4H67.6Z" fill="#4D4D4D"/></g><path d="M119.0 10.4H132.7V8.1H121.8V6.5H131.5V4.3H121.8V3.1H132.7V0.7H119.0V10.4Z" fill="#4D4D4D"/><path d="M113.1 10.4L118.1 0.7H114.9L110.2 9.9L105.5 0.7H102.3L107.3 10.4H113.1Z" fill="#4D4D4D"/></g></g><defs><clipPath id="clip0"><rect width="40.5" height="24" fill="white"/></clipPath><clipPath id="clip1"><rect width="163.5" height="22.5" fill="white" transform="translate(52.3 0.7)"/></clipPath><clipPath id="clip2"><rect width="163.3" height="22.5" fill="white" transform="translate(52.3 0.7)"/></clipPath></defs></svg>