<svg xmlns="http://www.w3.org/2000/svg" viewBox="0 -8 311 84" fill="#4D4D4D"><path d="M136.3,17.0L136.1,17.0C136.1,16.9 133.9,16.0 132.2,17.8L132.0,18.0L135.5,19.7L136.3,17.0ZM152.4,36.3C152.4,36.3 150.9,39.1 150.2,40.1C149.5,41.1 147.3,41.7 145.5,40.9C144.6,40.5 136.6,35.8 133.6,36.1C118.2,37.4 113.9,31.1 113.5,30.5C113.0,29.9 112.0,30.2 112.7,31.3C116.1,37.1 126.1,39.8 126.1,39.8C128.7,46.1 129.0,50.5 129.0,50.5C126.4,48.5 123.6,46.8 120.7,45.4C112.7,40.1 100.3,33.5 83.2,29.3C84.1,15.7 91.0,-3.8 123.0,0.8C123.0,0.8 129.5,1.8 133.8,4.8C133.8,4.8 132.7,5.9 131.4,7.2C130.0,8.6 131.5,9.4 131.5,9.4L138.3,14.7C138.4,17.6 138.5,18.3 140.6,20.9C142.7,23.4 151.0,32.1 152.0,33.2C153.3,34.6 152.4,36.3 152.4,36.3ZM78.6,9.9C76.9,16.8 77.0,23.0 77.9,28.2C76.3,27.9 74.6,27.5 73.0,27.3C37.9,21.6 27.3,38.8 31.4,52.9C19.8,57.2 8.9,62.2 0.2,67.1C13.9,34.1 43.8,5.0 69.1,1.2C77.3,0.1 79.7,5.5 78.6,9.9L78.6,9.9Z"/><path d="M83.4,40.0C97.1,39.0 110.0,40.3 120.7,45.4C112.7,40.1 100.3,33.5 83.2,29.3C82.8,34.1 83.2,38.1 83.4,40.0ZM81.5,40.2C66.2,41.7 48.1,46.6 31.4,52.9C27.3,38.8 37.9,21.6 73.0,27.3C74.6,27.5 76.3,27.9 77.9,28.2C78.7,33.1 80.2,37.2 81.5,40.2L81.5,40.2Z"/><path d="M286.6,35.0L291.3,23.4L296.1,35.0L286.6,35.0ZM287.8,14L272.5,50L280.5,50L283.8,41.9L298.9,41.9L302.2,50L310.4,50L295.1,14L287.8,14ZM188.6,26.7C188.6,29.7 186.3,32.1 182.3,32.1L176.1,32.1L176.1,21.1L182.2,21.1C186.1,21.1 188.6,23.0 188.6,26.6L188.6,26.7ZM182.8,14L168.1,14L168.1,50L176.1,50L176.1,39.2L182.1,39.2C190.1,39.2 196.6,34.8 196.6,26.5L196.6,26.4C196.6,19.0 191.4,14 182.8,14ZM239.7,18.0C235.9,21.7 234.0,26.3 234.0,31.8C234.0,37.4 235.9,42.0 239.6,45.6C243.3,49.2 248.0,51.1 253.5,51.1C259.9,51.1 265.0,49.1 268.5,45.2L268.7,45.0L268.7,28.5L253.1,28.5L253.1,35.2L261.2,35.2L261.2,41.9C259.1,43.2 256.5,43.8 253.4,43.8C250.2,43.8 247.4,42.7 245.2,40.6C242.9,38.4 241.8,35.5 241.8,31.9C241.8,28.3 242.9,25.3 245.3,23.1C247.6,20.9 250.5,19.8 253.9,19.8C255.7,19.8 257.3,20.0 258.7,20.5C259.9,20.9 261.2,21.6 262.5,22.7L266.8,17.1C264.5,15.1 260.4,12.4 253.5,12.4C248.1,12.4 243.5,14.3 239.7,18.0ZM210.3,35.6L225.8,35.6L225.8,28.5L210.3,28.5L210.3,21.0L229.6,21.0L229.6,14L202.4,14L202.4,50L229.8,50L229.8,42.9L210.3,42.9L210.3,35.6L210.3,35.6Z"/></svg>
