<svg viewBox="0 0 1445.5 524.4" xmlns="http://www.w3.org/2000/svg">
<g transform="translate(-1.3e-5,4.0e-5)">
<g>
<!-- Wordmark: Q -->
<path d="m 791.4,312.1 c -1,1 -2.5,1.5 -3.5,1.5 -1.2,0 -2.5,-0.5 -3.2,-1.5 l -27.3,-26.8 c -0.7,-0.7 -2,-1.5 -3.2,-1.5 h -41.6 c -2.5,0 -4.7,2.0 -4.7,4.7 0,1.2 0.4,2.5 1.4,3.5 l 44.1,42.9 c 0.7,0.7 1.5,2 1.5,3.2 0,1.7 -1.2,3.5 -2.7,4.2 -9.0,3.2 -18.8,5.0 -29.1,5.0 -21.3,0 -40.9,-8.0 -57.4,-23.8 C 649.4,308.4 641.4,288.3 641.4,264.2 c 0,-24.8 7.7,-45.6 23.3,-61.7 15.5,-16.3 35.3,-24.3 59.4,-24.3 23.5,0 43.6,8.2 59.7,24.3 16.0,16.3 24.0,36.6 24.0,60.7 -0.7,18.8 -6.0,35.1 -16.5,48.9 m 60.4,67.2 -31.1,-30.1 c -0.7,-0.7 -1.5,-2.0 -1.5,-3.2 0,-1.2 0.5,-2.2 1.2,-3.0 19.3,-22.8 29.1,-48.6 29.1,-77.2 0,-39.6 -14.8,-72.2 -43.6,-96.8 -24.0,-20.5 -51.7,-30.8 -82.3,-30.8 -33.6,0 -62.9,11.7 -87.8,35.3 -25.3,24.0 -38.3,54.7 -38.3,90.8 0,36.8 13.5,67.7 40.4,91.3 24.6,21.5 53.2,32.3 85.0,32.3 21.8,0 42.1,-5.2 60.4,-15.5 1.2,-0.7 2,-1.5 3.5,-1.5 1.2,0 2.5,0.5 3.2,1.5 l 13.8,14.0 c 0.7,0.7 2.0,1.5 3.2,1.5 h 40.4 c 2.5,0 4.7,-2.2 4.7,-4.7 1,-1.5 0.4,-2.7 -0.5,-3.7" fill="#4D4D4D"/>
<!-- u -->
<path d="m 999.5,363.6 c -9.7,14.8 -29.3,23.5 -55.7,23.5 -26.3,0 -45.9,-8.7 -55.7,-23.5 -6.7,-10.7 -10.0,-21.5 -10.0,-40.6 v -86.8 c 0,-2.0 1.7,-3.7 3.7,-3.7 H 912.6 c 2,0 3.7,1.7 3.7,3.7 v 79.8 c 0,7.0 -0.2,15.8 1.7,22.5 3.2,11.5 17.8,15.5 26.0,15.5 8.0,0 22.5,-4.0 26.1,-15.5 2,-6.7 1.7,-15.5 1.7,-22.5 v -79.8 c 0,-2.0 1.7,-3.7 3.7,-3.7 h 30.8 c 2,0 3.7,1.7 3.7,3.7 v 86.8 c -0.7,19.0 -3.7,29.8 -11.0,40.6" fill="#4D4D4D"/>
<!-- k -->
<path d="m 1444.4,381.9 -61.9,-84.3 59.2,-59.9 c 1.7,-1.7 1,-5.2 -2.5,-5.2 h -41.4 c -1.7,0 -2.7,0 -5.2,2.7 l -46.6,50.9 V 140.7 c 0,-2 -1.7,-3.7 -3.7,-3.7 h -31.3 c -2.0,0 -3.7,1.7 -3.7,3.7 v 242.1 c 0,2.0 1.7,3.7 3.7,3.7 h 31.3 c 2,0 3.7,-1.7 3.7,-3.7 v -49.4 l 9.2,-9.5 41.6,60.2 c 1.7,2.5 2.7,2.7 5.2,2.7 h 39.9 c 3.5,0 4.7,-2.2 2.5,-5.0" fill="#4D4D4D"/>
<!-- r -->
<path d="m 1288.8,248.9 c -7.5,-7.5 -19.3,-17.5 -38.1,-16.5 -14.8,0.7 -23.5,7.5 -29.6,14.5 -0.7,1.0 -1.2,0.7 -1.2,0 v -10.7 c 0,-2 -1.7,-3.7 -3.7,-3.7 h -30.6 c -2.0,0 -3.7,1.7 -3.7,3.7 v 147.3 c 0,2.0 1.7,3.7 3.7,3.7 h 30.3 c 2.0,0 3.7,-1.7 3.7,-3.7 v -68.2 c 0,-36.3 16.8,-49.1 31.3,-47.9 5.0,0.7 10.7,3.2 13.0,6.7 2.2,2.7 3.7,2.2 5.7,0.2 l 19.5,-19.8 c 2.2,-2 0.4,-4.5 -0.5,-5.5" fill="#4D4D4D"/>
<!-- a -->
<path d="m 1089.0,355.8 c -8.5,0 -18.0,-4.5 -18.8,-14.5 -1,-9.0 6.0,-13.2 9.5,-14.8 8.5,-5.0 26.8,-7.2 36.3,-8.5 v 28.1 c -7.0,6.5 -17.5,9.7 -27.1,9.7 m 5.2,-123.2 c -26.3,0 -39.8,8.0 -54.2,17.5 -2.0,1.2 -2.2,3.5 -1.2,5.2 l 13.8,19.5 c 1,1.7 3.2,2.2 5.0,1.0 12.5,-8.5 20.8,-12.3 36.6,-12.3 6.5,0 12.3,2.7 15.8,6.5 4.0,4.2 6.2,11.2 6.0,17.3 -15.8,2.0 -41.4,5.2 -55.2,11.7 -20.5,10.2 -28.3,25.0 -28.3,39.9 0,31.3 26.3,47.6 49.6,47.6 11.8,0 26.0,-3.0 34.1,-10.5 v 7.2 c 0,2.0 1.7,3.5 4.0,3.5 h 30.1 c 2.0,0 3.2,-1.7 3.2,-3.5 v -94.6 c -0.2,-49.1 -41.4,-56.4 -59.4,-56.4" fill="#4D4D4D"/>
<!-- Icon segments (monochrome) -->
<path d="m 141.0,262.2 0.0,-0.0 -19.9,-19.9 -65.6,-65.5 H 14.2 c -9.2,26.8 -14.2,55.6 -14.2,85.5 0,29.9 5.0,58.7 14.2,85.5 h 41.1" fill="#4D4D4D"/>
<path d="M 176.6,347.8 H 55.4 l -29.1,29.1 c 25.6,52.7 68.4,95.5 121.1,121.2 l 29.1,-29.1" fill="#6B6B6B"/>
<path d="m 150.8,272.0 -9.8,-9.8 -85.5,85.5 H 176.6 v -13.5 c 0,-23.3 -9.2,-45.7 -25.7,-62.2" fill="#5A5A5A"/>
<path d="m 403.5,242.0 -20.1,20.1 85.6,85.6 h 41.1 c 9.2,-26.8 14.3,-55.6 14.3,-85.5 0,-29.9 -5.0,-58.7 -14.3,-85.5 h -41.1" fill="#4D4D4D"/>
<path d="m 347.8,347.8 v 121.1 l 29.1,29.1 c 52.7,-25.6 95.5,-68.4 121.2,-121.2 L 469.0,347.8" fill="#8A8A8A"/>
<path d="m 347.8,334.3 v 13.5 H 469.0 L 383.4,262.2 373.6,272.0 c -16.5,16.5 -25.7,38.9 -25.7,62.2" fill="#7A7A7A"/>
<path d="M 347.8,176.6 H 468.8 l 29.2,-29.2 C 472.3,94.7 429.6,51.9 376.9,26.3 l -29.1,29.1" fill="#4D4D4D"/>
<path d="m 176.7,55.5 85.4,85.4 85.5,-85.5 V 14.2 C 321.0,5.0 292.2,-4.0e-5 262.2,-4.0e-5 c -29.9,0 -58.7,5.0 -85.5,14.2 v 41.1" fill="#6B6B6B"/>
<path d="M 176.6,176.6 V 55.4 L 147.5,26.3 C 94.8,51.9 52.1,94.7 26.4,147.3 l 29.2,29.2" fill="#8A8A8A"/>
<path d="m 262.1,383.3 -85.5,85.6 v 41.1 c 26.8,9.2 55.6,14.2 85.5,14.2 29.9,0 58.7,-5.0 85.5,-14.2 v -41.1" fill="#5A5A5A"/>
<path d="M 383.3,262.1 403.5,242.0 468.8,176.6 H 347.8 v 13.4 c 0,23.3 9.2,45.7 25.8,62.3" fill="#4D4D4D"/>
<path d="m 176.6,190.1 v -13.4 H 55.6 l 65.4,65.5 19.9,19.9 9.7,-9.7 c 16.5,-16.5 25.8,-38.9 25.8,-62.3" fill="#8A8A8A"/>
<path d="m 334.3,176.6 h 13.4 V 55.4 l -85.5,85.5 9.8,9.8 c 16.5,16.5 38.9,25.8 62.3,25.8" fill="#5A5A5A"/>
<path d="m 262.1,141.1 -85.4,-85.5 -0.0,-0.0 V 176.6 h 13.4 c 23.3,0 45.7,-9.2 62.3,-25.8" fill="#7A7A7A"/>
<path d="m 190.1,347.8 h -13.4 v 121.1 l 85.4,-85.6 -9.7,-9.7 c -16.5,-16.5 -38.9,-25.8 -62.3,-25.8" fill="#6B6B6B"/>
<path d="m 262.2,383.2 85.5,85.6 v -121.1 h -13.5 c -23.4,0 -45.8,9.3 -62.3,25.8" fill="#7A7A7A"/>
</g>
</g>
</svg>