<svg xmlns="http://www.w3.org/2000/svg" viewBox="0 0 256 180" fill="#4D4D4D"><path d="M106.6,159.6C114.8,168.2 126.3,173.5 139,173.5C155.9,173.5 170.6,164.1 178.4,150.1C185.3,153.2 192.8,154.9 200.7,154.9C231.2,154.9 255.9,130 255.9,99.3C255.9,68.6 231.2,43.7 200.7,43.7C197,43.7 193.4,44 189.9,44.7C183,32.4 169.8,24.1 154.7,24.1C148.4,24.1 142.4,25.5 137.1,28.1C130.1,11.7 113.8,0.1 94.7,0.1C74.9,0.1 58.1,12.7 51.6,30.2C48.8,29.6 45.8,29.3 42.8,29.3C19.2,29.3 0.1,48.6 0.1,72.4C0.1,88.4 8.7,102.3 21.5,109.8C18.8,115.8 17.4,122.5 17.4,129.5C17.4,156.9 39.6,179.1 67.1,179.1C83.2,179.1 97.5,171.5 106.6,159.6" transform="translate(128,89.6) scale(1,-1) translate(-128,-89.6)"/><g fill="#FFFFFF" transform="translate(0,0) scale(1,-1) translate(0,-180)"><path d="M37.2,75.3C37,74.9 37.2,74.8 37.3,74.8C37.8,74.4 38.2,74.2 38.7,73.9C41.3,72.5 43.8,72.1 46.4,72.1C51.6,72.1 54.9,74.9 54.9,79.4L54.9,79.5C54.9,83.6 51.2,85.1 47.8,86.2L47.3,86.3C44.7,87.2 42.5,87.9 42.5,89.6L42.5,89.7C42.5,91.2 43.8,92.3 45.8,92.3C48.1,92.3 50.8,91.5 52.5,90.6C52.5,90.6 53,90.2 53.2,90.7C53.3,91 54.2,93.3 54.2,93.6C54.3,93.9 54.2,94.1 54,94.2C52,95.4 49.3,96.2 46.5,96.2L45.9,96.2C41.1,96.2 37.8,93.3 37.8,89.1L37.8,89.1C37.8,84.7 41.5,83.3 45,82.3L45.5,82.1C48,81.3 50.2,80.6 50.2,78.9L50.2,78.8C50.2,77.2 48.8,76 46.5,76C45.6,76 42.8,76 39.8,77.9C39.4,78.1 39.2,78.3 38.9,78.4C38.7,78.5 38.4,78.7 38.2,78.2L37.2,75.3Z"/><path d="M114,75.3C113.8,74.9 114,74.8 114.1,74.8C114.6,74.4 115,74.2 115.5,73.9C118.1,72.5 120.6,72.1 123.2,72.1C128.4,72.1 131.7,74.9 131.7,79.4L131.7,79.5C131.7,83.6 128,85.1 124.6,86.2L124.1,86.3C121.5,87.2 119.3,87.9 119.3,89.6L119.3,89.7C119.3,91.2 120.6,92.3 122.6,92.3C124.9,92.3 127.6,91.5 129.3,90.6C129.3,90.6 129.8,90.2 130,90.7C130.1,91 131,93.3 131,93.6C131.1,93.9 131,94.1 130.8,94.2C128.8,95.4 126.1,96.2 123.3,96.2L122.7,96.2C117.9,96.2 114.6,93.3 114.6,89.1L114.6,89.1C114.6,84.7 118.3,83.3 121.8,82.3L122.3,82.1C124.8,81.3 127,80.6 127,78.9L127,78.8C127,77.2 125.6,76 123.3,76C122.4,76 119.6,76 116.6,77.9C116.2,78.1 116,78.3 115.7,78.4C115.6,78.5 115.2,78.7 115,78.2L114,75.3Z"/><path d="M166.4,84.1C166.4,81.6 165.9,79.6 165,78.2C164.1,76.8 162.7,76.1 160.7,76.1C158.8,76.1 157.4,76.8 156.5,78.2C155.6,79.6 155.1,81.6 155.1,84.1C155.1,86.6 155.6,88.6 156.5,90C157.4,91.4 158.8,92.1 160.7,92.1C162.7,92.1 164.1,91.4 165,90C165.9,88.6 166.4,86.6 166.4,84.1M170.8,88.8C170.3,90.3 169.7,91.6 168.8,92.6C167.9,93.7 166.8,94.6 165.4,95.2C164.1,95.8 162.5,96.1 160.7,96.1C158.9,96.1 157.4,95.8 156,95.2C154.7,94.5 153.6,93.7 152.7,92.6C151.8,91.6 151.1,90.3 150.7,88.8C150.2,87.4 150,85.8 150,84.1C150,82.4 150.2,80.8 150.7,79.4C151.1,78 151.8,76.7 152.7,75.6C153.6,74.5 154.7,73.7 156,73.1C157.4,72.5 159,72.1 160.7,72.1C162.5,72.1 164.1,72.5 165.4,73.1C166.8,73.7 167.9,74.5 168.8,75.6C169.7,76.7 170.3,78 170.8,79.4C171.2,80.9 171.4,82.4 171.4,84.1C171.4,85.8 171.2,87.4 170.8,88.8"/><path d="M206.7,76.7C206.6,77.2 206.2,77 206.2,77C205.5,76.7 204.9,76.5 204.1,76.4C203.4,76.3 202.6,76.2 201.7,76.2C199.6,76.2 197.9,76.9 196.7,78.1C195.5,79.4 194.8,81.4 194.9,84.1C194.9,86.6 195.5,88.4 196.5,89.9C197.6,91.3 199.2,92 201.4,92C203.2,92 204.6,91.8 206,91.3C206,91.3 206.4,91.2 206.5,91.6C206.9,92.7 207.2,93.5 207.6,94.6C207.7,95 207.4,95.1 207.3,95.2C206.8,95.4 205.4,95.7 204.4,95.9C203.5,96 202.4,96.1 201.1,96.1C199.3,96.1 197.6,95.8 196.2,95.2C194.8,94.5 193.7,93.7 192.7,92.6C191.8,91.5 191.1,90.3 190.6,88.8C190.1,87.4 189.9,85.8 189.9,84.1C189.9,80.5 190.9,77.5 192.8,75.4C194.7,73.2 197.6,72.1 201.4,72.1C203.7,72.1 206,72.6 207.6,73.2C207.6,73.2 208,73.4 207.8,73.8L206.7,76.7Z"/><path d="M214.4,86.6C214.6,88 215,89.1 215.6,90C216.5,91.4 217.9,92.2 219.8,92.2C221.8,92.2 223.1,91.4 224,90C224.6,89.1 224.9,87.9 225,86.6L214.4,86.6ZM229.1,89.7C228.8,91.1 227.8,92.5 227.2,93.1C226.3,94.1 225.4,94.9 224.4,95.3C223.2,95.8 221.8,96.1 220.2,96.1C218.3,96.1 216.7,95.8 215.3,95.2C213.9,94.5 212.8,93.7 211.9,92.6C211,91.5 210.3,90.2 209.9,88.7C209.4,87.3 209.2,85.7 209.2,84C209.2,82.3 209.4,80.7 209.9,79.3C210.3,77.8 211.1,76.5 212,75.5C213,74.4 214.3,73.6 215.8,73C217.3,72.4 219.1,72.1 221.1,72.2C225.4,72.2 227.7,73.1 228.6,73.6C228.8,73.7 228.9,73.9 228.7,74.3L227.8,77.1C227.6,77.5 227.2,77.3 227.2,77.3C226.2,76.9 224.6,76.2 221.1,76.2C218.8,76.2 217.1,76.9 216.1,78C215,79 214.4,80.6 214.3,82.9L229.2,82.9C229.2,82.9 229.5,82.9 229.6,83.3C229.6,83.4 230.1,86.3 229.1,89.7Z"/><path d="M95.7,86.6C95.9,88 96.3,89.1 96.9,90C97.8,91.4 99.2,92.2 101.1,92.2C103.1,92.2 104.3,91.4 105.3,90C105.9,89.1 106.1,87.9 106.3,86.6L95.7,86.6ZM110.4,89.7C110.1,91.1 109.1,92.5 108.5,93.1C107.6,94.1 106.6,94.9 105.7,95.3C104.5,95.8 103.1,96.1 101.5,96.1C99.6,96.1 97.9,95.8 96.6,95.2C95.2,94.5 94.1,93.7 93.2,92.6C92.3,91.5 91.6,90.2 91.2,88.7C90.7,87.3 90.5,85.7 90.5,84C90.5,82.3 90.7,80.7 91.2,79.3C91.6,77.8 92.3,76.5 93.3,75.5C94.3,74.4 95.6,73.6 97.1,73C98.5,72.4 100.4,72.1 102.4,72.2C106.7,72.2 109,73.1 109.9,73.6C110.1,73.7 110.2,73.9 110,74.3L109.1,77.1C108.9,77.5 108.5,77.3 108.5,77.3C107.4,76.9 105.9,76.2 102.4,76.2C100.1,76.2 98.4,76.9 97.3,78C96.2,79 95.7,80.6 95.6,82.9L110.4,82.9C110.4,82.9 110.8,82.9 110.9,83.3C110.9,83.4 111.4,86.3 110.4,89.7Z"/><path d="M63.6,76.8C63.1,77.3 63,77.4 62.8,77.7C62.5,78.2 62.3,78.8 62.3,79.6C62.3,80.9 62.8,81.9 63.7,82.5C63.7,82.5 64.9,83.6 68,83.6C70.1,83.5 72,83.2 72,83.2L72,76.5L72,76.5C72,76.5 70.1,76.1 68,75.9C65,75.8 63.6,76.8 63.6,76.8M69.5,87.2C68.9,87.3 68.2,87.3 67.2,87.3C65.9,87.3 64.7,87.1 63.6,86.8C62.4,86.5 61.4,86 60.5,85.4C59.6,84.8 58.9,83.9 58.3,83C57.8,82 57.5,80.8 57.5,79.5C57.5,78.2 57.8,77.1 58.2,76.2C58.7,75.2 59.3,74.4 60.2,73.8C61,73.2 62,72.8 63.2,72.5C64.3,72.3 65.7,72.1 67.1,72.1C68.6,72.1 70.1,72.3 71.6,72.5C73.1,72.7 74.8,73.1 75.3,73.2C75.8,73.3 76.4,73.5 76.4,73.5C76.7,73.6 76.7,74 76.7,74L76.7,87.5C76.7,90.5 75.9,92.7 74.3,94.1C72.8,95.4 70.5,96.1 67.5,96.1C66.4,96.1 64.6,96 63.6,95.8C63.6,95.8 60.3,95.1 59,94.1C59,94.1 58.7,93.9 58.9,93.5L59.9,90.7C60,90.3 60.4,90.4 60.4,90.4C60.4,90.4 60.5,90.5 60.6,90.6C63.5,92.1 67.1,92.1 67.1,92.1C68.7,92.1 69.9,91.7 70.8,91.1C71.6,90.5 72,89.5 72,87.6L72,86.9C70.7,87.1 69.5,87.2 69.5,87.2"/><path d="M189.1,94.7C189.2,95 189,95.2 188.9,95.2C188.6,95.3 187.4,95.6 186.4,95.6C184.5,95.7 183.5,95.4 182.6,95C181.7,94.6 180.6,93.9 180.1,93.2L180.1,95C180.1,95.2 179.9,95.4 179.6,95.4L175.8,95.4C175.6,95.4 175.4,95.2 175.4,95L175.4,72.8C175.4,72.6 175.6,72.4 175.9,72.4L179.8,72.4C180,72.4 180.2,72.6 180.2,72.8L180.2,83.9C180.2,85.4 180.4,86.9 180.7,87.8C181,88.7 181.5,89.4 182,90C182.5,90.5 183.2,90.9 183.8,91.1C184.5,91.3 185.3,91.3 185.8,91.3C186.6,91.3 187.4,91.1 187.4,91.1C187.7,91.1 187.9,91.3 188,91.5C188.2,92.2 189,94.3 189.1,94.7"/><path d="M152.5,105.8C152.1,105.9 151.6,106 151.1,106.1C150.5,106.2 149.8,106.3 149.1,106.3C146.4,106.3 144.3,105.5 142.8,104C141.3,102.5 140.3,100.3 139.8,97.3L139.6,96.3L136.3,96.3C136.3,96.3 135.9,96.3 135.8,95.9L135.2,92.8C135.2,92.5 135.3,92.3 135.7,92.3L139,92.3L135.6,73.7C135.4,72.2 135.1,71 134.8,70.1C134.4,69.2 134.1,68.5 133.7,68C133.3,67.5 133,67.1 132.4,66.9C131.9,66.8 131.3,66.7 130.6,66.7C130.3,66.7 129.8,66.7 129.4,66.8C129.1,66.9 128.9,67 128.6,67.1C128.6,67.1 128.3,67.2 128.1,66.8C128,66.5 127.1,64.1 127,63.8C126.9,63.5 127,63.3 127.2,63.2C127.7,63.1 128,63 128.6,62.8C129.4,62.6 130.1,62.6 130.8,62.6C132.1,62.6 133.4,62.8 134.4,63.2C135.4,63.6 136.3,64.2 137.1,65.1C138,66.1 138.5,67.1 139.1,68.4C139.6,69.8 140,71.4 140.4,73.4L143.7,92.3L148.6,92.3C148.6,92.3 149,92.3 149.1,92.7L149.6,95.8C149.7,96.1 149.5,96.3 149.1,96.3L144.4,96.3C144.4,96.4 144.6,98.1 145.2,99.6C145.4,100.3 145.9,100.8 146.2,101.2C146.6,101.6 147,101.8 147.5,102C147.9,102.1 148.5,102.2 149.1,102.2C149.5,102.2 149.9,102.2 150.3,102.1C150.7,102 150.9,101.9 151,101.9C151.5,101.8 151.6,101.9 151.7,102.1L152.8,105.2C152.9,105.6 152.6,105.7 152.5,105.8"/><path d="M86.3,63.6C86.3,63.3 86.1,63.1 85.9,63.1L82,63.1C81.7,63.1 81.5,63.3 81.5,63.6L81.5,95.2C81.5,95.4 81.7,95.6 82,95.6L85.9,95.6C86.1,95.6 86.3,95.4 86.3,95.2L86.3,63.6Z"/></g></svg>