<svg xmlns="http://www.w3.org/2000/svg" viewBox="0 0 87.6 36">
  <g transform="translate(0,31) scale(0.012695,-0.012695)" fill="#4D4D4D">
    <path transform="translate(0,0)" d="M1054 406Q1054 310 1025.5 231.5Q997 153 936.5 97.0Q876 41 782.5 10.5Q689 -20 559 -20Q444 -20 356.5 5.0Q269 30 206.0 79.0Q143 128 104.5 200.5Q66 273 48 367L282 414Q292 367 311.0 328.0Q330 289 363.0 260.5Q396 232 445.5 216.5Q495 201 566 201Q689 201 754.0 246.5Q819 292 819 389Q819 447 793.0 484.0Q767 521 723.5 545.0Q680 569 623.5 585.0Q567 601 505 616Q505 616 406 645Q357 660 312.5 681.0Q268 702 229.5 731.0Q191 760 162.5 802.5Q134 845 118.0 902.0Q102 959 102 1036Q102 1141 136.5 1216.0Q171 1291 232.5 1338.5Q294 1386 378.0 1408.0Q462 1430 562 1430Q675 1430 756.0 1408.5Q837 1387 891.5 1343.0Q946 1299 977.5 1232.5Q1009 1166 1024 1077L790 1038Q772 1129 716.5 1175.0Q661 1221 558 1221Q494 1221 451.5 1207.5Q409 1194 384.0 1171.0Q359 1148 348.5 1117.5Q338 1087 338 1053Q338 1001 358.5 967.5Q379 934 416.0 911.5Q453 889 504.0 873.5Q555 858 617 842Q671 828 724.0 812.5Q777 797 825.5 776.0Q874 755 916.0 725.0Q958 695 988.5 651.5Q1019 608 1036.5 548.0Q1054 488 1054 406Z"/>
    <path transform="translate(1120,0)" d="M1063 963Q1063 872 1038.0 787.5Q1013 703 961.0 638.0Q909 573 829.5 534.5Q750 496 641 496H354V0H112V1409H631Q742 1409 823.0 1376.5Q904 1344 957.5 1285.0Q1011 1226 1037.0 1144.0Q1063 1062 1063 963ZM819 958Q819 1067 765.5 1123.5Q712 1180 604 1180H354V723H611Q665 723 704.0 740.0Q743 757 768.5 788.0Q794 819 806.5 862.5Q819 906 819 958Z"/>
    <path transform="translate(2240,0)" d="M928 0 826 360H386L284 0H42L463 1409H748L1168 0ZM658 987Q658 987 638 1058Q629 1093 622 1122L610 1171Q606 1190 606 1192Q605 1189 601.0 1170.0Q597 1151 590.0 1122.0Q583 1093 574 1058L554 987L440 582H772Z"/>
    <path transform="translate(3452,0)" d="M651 212Q719 212 769.0 235.5Q819 259 855.5 297.0Q892 335 916.0 383.0Q940 431 956 480L1166 383Q1141 307 1100.0 234.0Q1059 161 997.5 105.0Q936 49 851.0 14.5Q766 -20 651 -20Q501 -20 391.5 34.5Q282 89 210.0 186.5Q138 284 103.5 418.0Q69 552 69 711Q69 876 103.5 1009.0Q138 1142 208.5 1235.5Q279 1329 387.0 1379.5Q495 1430 641 1430Q754 1430 839.0 1401.0Q924 1372 985.5 1319.5Q1047 1267 1087.5 1195.5Q1128 1124 1151 1038L938 967Q927 1012 903.0 1053.5Q879 1095 842.5 1127.0Q806 1159 757.0 1178.5Q708 1198 646 1198Q558 1198 495.0 1163.5Q432 1129 391.5 1065.0Q351 1001 331.5 911.5Q312 822 312 711Q312 601 331.5 509.5Q351 418 392.0 352.0Q433 286 497.0 249.0Q561 212 651 212Z"/>
    <path transform="translate(4664,0)" d="M112 0V1409H1021V1181H354V827H971V599H354V228H1054V0Z"/>
    <path transform="translate(5784,0)" d="M851 0 561 561 271 0H15L415 741L48 1409H304L561 911L817 1409H1072L721 741L1105 0Z"/>
  </g>
</svg>
