<svg xmlns="http://www.w3.org/2000/svg" viewBox="0 -32 686 209" fill="#4D4D4D">
  <g transform="matrix(1.3333333,0,0,-1.3333333,-342.10927,847.4447)">
    <g transform="matrix(9.8832315,0,0,9.8832315,427.00444,612.60497)">
      <path d="M 0,0 V -8.602 H 2.977 V 0 H 7.916 V 2.325 H -4.939 V 0 Z"/>
    </g>
    <g transform="matrix(9.8832315,0,0,9.8832315,-4040.9683,-3660.4447)">
      <g transform="translate(460.5781,434.6782)">
        <path d="m 0,0 v -10.927 h 6.718 c 4.303,0 6.145,3.003 6.145,5.462 C 12.863,-3.007 11.021,0 6.718,0 Z m 2.854,-8.558 v 6.233 h 4.418 c 1.182,0 2.825,-1.253 2.825,-3.142 0,-1.843 -1.655,-3.091 -2.825,-3.091 z"/>
      </g>
      <path d="m 473.947,423.751 h 2.984 v 10.927 h -2.984 z"/>
      <g transform="translate(477.0146,429.4555)">
        <path d="M 0,0 5.613,5.223 H 9.566 L 3.68,0 9.88,-5.704 H 5.752 Z"/>
      </g>
      <g transform="translate(447.4511,427.7509)">
        <path d="M 0,0 -3.999,6.927 V 2.309 L 0,0 m -12.618,0 4,6.927 V 2.309 L -12.618,0 M -6.31,-1.69 -10.309,-4 h 8 z"/>
      </g>
      <g transform="translate(443.4521,430.06)">
        <path d="M 0,0 -2.311,2.309 -4.619,0 Z M -4.619,4.618 -2.311,2.309 0,4.618 Z"/>
      </g>
      <g transform="translate(447.4511,427.7509)">
        <path d="M 0,0 -3.154,-0.845 -2.309,-4 Z m -6.31,-1.69 3.156,0.845 -0.845,3.154 z"/>
      </g>
      <g transform="translate(437.1425,423.7514)">
        <path d="M 0,0 0.845,3.154 -2.31,4 Z M 1.69,6.309 0.845,3.154 3.999,2.31 Z"/>
      </g>
    </g>
  </g>
</svg>
