<svg version="1.1" xmlns="http://www.w3.org/2000/svg" viewBox="0 0 97.7 43.6">
<g fill="#4D4D4D">
<path d="m 20.2,1.4 0.0,0 L 25.0,16 l 2.0,0 4.2,-16 -1.4,0 -3.7,14.5 -0.0,0 L 21.1,0 l -1.7,0 -4.7,14.5 -0.0,0 L 10.7,0 9.2,0 13.4,16 15.5,16 20.2,1.4"/>
<path d="m 33.4,4.8 0,11.1 1.3,0 0,-11.1 -1.3,0 z M 34.9,0 l -1.5,0 0,1.6 1.5,0 0,-1.6"/>
<path d="m 48.0,10.7 c 0,-3.4 -1.3,-6.2 -5.1,-6.2 -3.3,0 -5.0,2.8 -5.0,5.8 0,3.0 1.5,5.8 4.9,5.8 2.7,0 4.4,-1.2 5.1,-3.8 l -1.4,0 c -0.3,1.5 -1.6,2.6 -3.2,2.6 -2.7,0 -3.8,-1.9 -3.9,-4.3 l 8.7,0 z M 39.3,9.5 c 0.1,-1.9 1.3,-3.7 3.5,-3.7 2.3,0 3.5,1.6 3.6,3.7 l -7.2,0"/>
<path d="m 58.8,10.1 c 0,2.5 -0.9,4.9 -3.8,4.9 -2.5,0 -3.2,-2.8 -3.2,-4.8 0,-2.1 0.8,-4.4 3.4,-4.4 2.6,0 3.6,2.1 3.6,4.4 z M 58.9,16 l 1.4,0 c -0.0,-0.7 -0.1,-1.6 -0.1,-2.5 L 60.2,0 58.8,0 l 0,6.5 -0.0,0.0 C 58.0,5.2 56.4,4.5 54.9,4.5 c -3.3,0 -4.6,2.9 -4.6,5.8 0,2.7 1.2,5.9 4.6,5.9 1.5,0 2.9,-0.7 3.8,-2.0 L 58.8,14.3 58.9,16"/>
<path d="m 73.2,10.7 c 0,-3.4 -1.3,-6.2 -5.1,-6.2 -3.3,0 -5.0,2.8 -5.0,5.8 0,3.0 1.5,5.8 4.9,5.8 2.7,0 4.4,-1.2 5.1,-3.8 l -1.4,0 c -0.3,1.5 -1.6,2.6 -3.2,2.6 -2.7,0 -3.8,-1.9 -3.9,-4.3 l 8.7,0 z M 64.4,9.5 c 0.1,-1.9 1.3,-3.7 3.5,-3.7 2.3,0 3.5,1.6 3.6,3.7 l -7.2,0"/>
<path d="m 77.6,9.5 c 0,-1.9 1.0,-3.8 3.2,-3.8 1.8,0 2.9,1.1 2.9,3.0 l 0,7.1 1.3,0 0,-6.9 c 0,-1.2 -0.2,-4.4 -3.9,-4.4 -1.4,0 -2.7,0.6 -3.5,2.0 l -0.0,-0.0 -0.0,-1.6 -1.3,0 c 0.0,0.7 0.1,1.6 0.1,2.5 l 0,8.6 1.3,0 0,-6.4"/>
<path d="M 1.4,39.3 1.4,31.0 9.2,39.3 l 2.0,0 -8.1,-8.7 7.5,-7.2 -1.8,0 -7.2,7.0 -0.0,-7.0 -1.4,0 0,16 1.4,0"/>
<path d="m 22.8,34.1 c 0,-3.4 -1.3,-6.2 -5.1,-6.2 -3.3,0 -5.0,2.8 -5.0,5.8 0,3.0 1.5,5.8 4.9,5.8 2.7,0 4.4,-1.2 5.1,-3.8 l -1.4,0 c -0.3,1.5 -1.6,2.6 -3.2,2.6 -2.7,0 -3.8,-1.9 -3.9,-4.3 l 8.7,0 z m -8.7,-1.2 c 0.1,-1.9 1.3,-3.7 3.5,-3.7 2.3,0 3.5,1.6 3.6,3.7 l -7.2,0"/>
<path d="m 27.2,32.9 c 0,-1.9 1.0,-3.8 3.2,-3.8 1.8,0 2.9,1.1 2.9,3.0 l 0,7.1 1.3,0 0,-6.9 c 0,-1.2 -0.2,-4.4 -3.9,-4.4 -1.4,0 -2.7,0.6 -3.5,2.0 l -0.0,-0.0 -0.0,-1.6 -1.3,0 c 0.0,0.7 0.1,1.6 0.1,2.5 l 0,8.6 1.3,0 0,-6.4"/>
<path d="m 39.7,32.9 c 0,-1.9 1.0,-3.8 3.2,-3.8 1.8,0 2.9,1.1 2.9,3.0 l 0,7.1 1.3,0 0,-6.9 c 0,-1.2 -0.2,-4.4 -3.9,-4.4 -1.4,0 -2.7,0.6 -3.5,2.0 l -0.0,-0.0 -0.0,-1.6 -1.3,0 c 0.0,0.7 0.1,1.6 0.1,2.5 l 0,8.6 1.3,0 0,-6.4"/>
<path d="m 60.5,34.1 c 0,-3.4 -1.3,-6.2 -5.1,-6.2 -3.3,0 -5.0,2.8 -5.0,5.8 0,3.0 1.5,5.8 4.9,5.8 2.7,0 4.4,-1.2 5.1,-3.8 l -1.4,0 c -0.3,1.5 -1.6,2.6 -3.2,2.6 -2.7,0 -3.8,-1.9 -3.9,-4.3 l 8.7,0 z m -8.7,-1.2 c 0.1,-1.9 1.3,-3.7 3.5,-3.7 2.3,0 3.5,1.6 3.6,3.7 l -7.2,0"/>
<path d="m 71.4,33.5 c 0,2.5 -0.9,4.9 -3.8,4.9 -2.5,0 -3.2,-2.8 -3.2,-4.8 0,-2.1 0.8,-4.4 3.4,-4.4 2.6,0 3.6,2.1 3.6,4.4 z m 0.1,5.8 1.4,0 c -0.0,-0.7 -0.1,-1.6 -0.1,-2.5 l 0,-13.4 -1.3,0 0,6.5 -0.0,0.0 c -0.7,-1.3 -2.3,-2.0 -3.8,-2.0 -3.3,0 -4.6,2.9 -4.6,5.8 0,2.7 1.2,5.9 4.6,5.9 1.5,0 2.9,-0.7 3.8,-2.0 l 0.0,0.0 0.0,1.6"/>
<path d="m 74.6,28.2 4.6,11.1 -1.7,4.2 1.4,0 6.2,-15.3 -1.4,0 -3.7,9.3 -3.8,-9.3 -1.6,0"/>
</g>
<g stroke="#4D4D4D" stroke-width="1.3" fill="none">
<path d="m 91.5,16.0 0,12.2"/>
<path d="m 85.2,22.1 12.5,0"/>
</g>
</svg>